<mxfile host="app.diagrams.net" agent="Mozilla/5.0 (X11; Linux x86_64; rv:135.0) Gecko/20100101 Firefox/135.0" version="26.1.1">
  <diagram id="Ht1M8jgEwFfnCIfOTk4-" name="Page-1">
    <mxGraphModel dx="1725" dy="951" grid="1" gridSize="10" guides="1" tooltips="1" connect="1" arrows="1" fold="1" page="1" pageScale="1" pageWidth="827" pageHeight="1169" math="0" shadow="0">
      <root>
        <mxCell id="0" />
        <mxCell id="1" parent="0" />
        <mxCell id="jZVaUwOg5UY3L9NAnvdq-71" value="AWS Cloud" style="points=[[0,0],[0.25,0],[0.5,0],[0.75,0],[1,0],[1,0.25],[1,0.5],[1,0.75],[1,1],[0.75,1],[0.5,1],[0.25,1],[0,1],[0,0.75],[0,0.5],[0,0.25]];outlineConnect=0;gradientColor=none;html=1;whiteSpace=wrap;fontSize=13;fontStyle=0;shape=mxgraph.aws4.group;grIcon=mxgraph.aws4.group_aws_cloud_alt;strokeColor=#232F3E;fillColor=none;verticalAlign=top;align=left;spacingLeft=30;fontColor=#232F3E;dashed=0;labelBackgroundColor=none;container=1;pointerEvents=0;collapsible=0;recursiveResize=0;" parent="1" vertex="1">
          <mxGeometry x="350" y="210" width="1040" height="550" as="geometry" />
        </mxCell>
        <mxCell id="rhXxKZ1V0jwPfmqhfIQ--2" value="" style="rounded=1;whiteSpace=wrap;html=1;verticalAlign=top;fontSize=13;" vertex="1" parent="jZVaUwOg5UY3L9NAnvdq-71">
          <mxGeometry x="391" y="100.25" width="610" height="345" as="geometry" />
        </mxCell>
        <mxCell id="rhXxKZ1V0jwPfmqhfIQ--4" value="" style="rounded=1;whiteSpace=wrap;html=1;verticalAlign=top;fontSize=13;fillColor=#dae8fc;strokeColor=#6c8ebf;" vertex="1" parent="jZVaUwOg5UY3L9NAnvdq-71">
          <mxGeometry x="510" y="165" width="470" height="255" as="geometry" />
        </mxCell>
        <mxCell id="-QjtrjUzRDEMRZ5MF8oH-47" value="Bluebikes Availability Predictor Application" style="text;html=1;resizable=0;points=[];autosize=1;align=left;verticalAlign=top;spacingTop=-4;fontSize=23;fontStyle=1;labelBackgroundColor=none;" parent="jZVaUwOg5UY3L9NAnvdq-71" vertex="1">
          <mxGeometry x="320" y="10" width="450" height="40" as="geometry" />
        </mxCell>
        <mxCell id="rhXxKZ1V0jwPfmqhfIQ--6" style="edgeStyle=orthogonalEdgeStyle;rounded=0;orthogonalLoop=1;jettySize=auto;html=1;startArrow=classic;startFill=1;" edge="1" parent="jZVaUwOg5UY3L9NAnvdq-71" source="ifsCe7wSicus5D4EdEdn-7" target="rhXxKZ1V0jwPfmqhfIQ--5">
          <mxGeometry relative="1" as="geometry" />
        </mxCell>
        <mxCell id="rhXxKZ1V0jwPfmqhfIQ--7" value="Prediction API" style="edgeLabel;html=1;align=center;verticalAlign=middle;resizable=0;points=[];" vertex="1" connectable="0" parent="rhXxKZ1V0jwPfmqhfIQ--6">
          <mxGeometry x="-0.3384" relative="1" as="geometry">
            <mxPoint x="11" as="offset" />
          </mxGeometry>
        </mxCell>
        <mxCell id="ifsCe7wSicus5D4EdEdn-7" value="Front-End" style="rounded=1;whiteSpace=wrap;html=1;verticalAlign=top;fontSize=13;" parent="jZVaUwOg5UY3L9NAnvdq-71" vertex="1">
          <mxGeometry x="126.87" y="195" width="137" height="155" as="geometry" />
        </mxCell>
        <mxCell id="jZVaUwOg5UY3L9NAnvdq-73" value="S3" style="outlineConnect=0;fontColor=#232F3E;gradientColor=#60A337;gradientDirection=north;fillColor=#277116;strokeColor=#ffffff;dashed=0;verticalLabelPosition=bottom;verticalAlign=top;align=center;html=1;fontSize=13;fontStyle=0;aspect=fixed;shape=mxgraph.aws4.resourceIcon;resIcon=mxgraph.aws4.s3;labelBackgroundColor=none;" parent="jZVaUwOg5UY3L9NAnvdq-71" vertex="1">
          <mxGeometry x="156.37" y="233.5" width="78" height="78" as="geometry" />
        </mxCell>
        <mxCell id="ASHzGRQUF6kaOziHz2nL-50" value="&lt;font style=&quot;font-size: 13px;&quot;&gt;Get static website&lt;/font&gt;" style="edgeStyle=orthogonalEdgeStyle;rounded=0;orthogonalLoop=1;jettySize=auto;html=1;" parent="jZVaUwOg5UY3L9NAnvdq-71" source="ASHzGRQUF6kaOziHz2nL-48" target="ifsCe7wSicus5D4EdEdn-7" edge="1">
          <mxGeometry relative="1" as="geometry" />
        </mxCell>
        <mxCell id="ASHzGRQUF6kaOziHz2nL-48" value="" style="shape=image;imageAspect=0;aspect=fixed;verticalLabelPosition=bottom;verticalAlign=top;image=https://cf-assets.www.cloudflare.com/slt3lc6tev37/fdh7MDcUlyADCr49kuUs2/5f780ced9677a05d52b05605be88bc6f/cf-logo-v-rgb.png;fontSize=13;labelBackgroundColor=default;spacingBottom=0;spacingTop=25;" parent="jZVaUwOg5UY3L9NAnvdq-71" vertex="1">
          <mxGeometry x="-160" y="250" width="144.28" height="48" as="geometry" />
        </mxCell>
        <mxCell id="rhXxKZ1V0jwPfmqhfIQ--1" value="EC2 Instance" style="outlineConnect=0;dashed=0;verticalLabelPosition=bottom;verticalAlign=top;align=center;html=1;shape=mxgraph.aws3.ec2;fillColor=#F58534;gradientColor=none;" vertex="1" parent="jZVaUwOg5UY3L9NAnvdq-71">
          <mxGeometry x="673.5" y="75" width="45" height="53.5" as="geometry" />
        </mxCell>
        <mxCell id="rhXxKZ1V0jwPfmqhfIQ--3" value="" style="image;sketch=0;aspect=fixed;html=1;points=[];align=center;fontSize=12;image=img/lib/mscae/Docker.svg;" vertex="1" parent="jZVaUwOg5UY3L9NAnvdq-71">
          <mxGeometry x="520" y="180" width="50" height="41" as="geometry" />
        </mxCell>
        <mxCell id="rhXxKZ1V0jwPfmqhfIQ--11" style="edgeStyle=orthogonalEdgeStyle;rounded=0;orthogonalLoop=1;jettySize=auto;html=1;startArrow=classic;startFill=1;" edge="1" parent="jZVaUwOg5UY3L9NAnvdq-71" source="rhXxKZ1V0jwPfmqhfIQ--5" target="rhXxKZ1V0jwPfmqhfIQ--10">
          <mxGeometry relative="1" as="geometry" />
        </mxCell>
        <mxCell id="rhXxKZ1V0jwPfmqhfIQ--5" value="Nginx" style="shape=image;imageAspect=0;aspect=fixed;verticalLabelPosition=bottom;verticalAlign=top;image=https://external-content.duckduckgo.com/iu/?u=https%3A%2F%2Fdwglogo.com%2Fwp-content%2Fuploads%2F2017%2F09%2F3630px-Nginx_logo.png&amp;f=1&amp;nofb=1&amp;ipt=7805c32d32028ed1220026ae473bcfe77659dd19a15cde6038770104a0f870f4&amp;ipo=images;imageBackground=#52FF4C;" vertex="1" parent="jZVaUwOg5UY3L9NAnvdq-71">
          <mxGeometry x="410" y="242.68" width="87.59" height="60.13" as="geometry" />
        </mxCell>
        <mxCell id="rhXxKZ1V0jwPfmqhfIQ--15" style="edgeStyle=orthogonalEdgeStyle;rounded=0;orthogonalLoop=1;jettySize=auto;html=1;entryX=0;entryY=0.5;entryDx=0;entryDy=0;startArrow=classic;startFill=1;" edge="1" parent="jZVaUwOg5UY3L9NAnvdq-71" source="rhXxKZ1V0jwPfmqhfIQ--9" target="rhXxKZ1V0jwPfmqhfIQ--13">
          <mxGeometry relative="1" as="geometry" />
        </mxCell>
        <mxCell id="rhXxKZ1V0jwPfmqhfIQ--9" value="Flask" style="shape=image;verticalLabelPosition=bottom;labelBackgroundColor=none;verticalAlign=top;aspect=fixed;imageAspect=0;image=data:image/png,iVBORw0KGgoAAAANSUhEUgAAAgAAAAIACAYAAAD0eNT6AAAABHNCSVQICAgIfAhkiAAAIABJREFUeF7tve2RK8lxsCsq+FuxckBqOsD3yAGq6QA1dIBqOiAOHRBD14GR5ACWcmBWrwM4ogNnXzmAufx/YzdkwL03n10UWVunursaaAANzJMRddD1lZX5NKYyq4GZ8xd/oUhAAhKQgAQkIAEJSEACEpCABCQgAQlIQAISkIAEJCABCUhAAhKQgAQkIAEJSEACEpCABCQgAQlIQAISkIAEJCABCUhAAhKQgAQkIAEJSEACEpCABCQgAQlIQAISkIAEJCABCUhAAhKQgAQkIAEJSEACEpCABCQgAQlIQAISkIAEJCABCUhAAhKQgAQkIAEJSEACEpCABCQgAQlIQAISkIAEJCABCUhAAhKQgAQkIAEJSEACEpCABCQgAQlIQAISkIAEJCABCUhAAhKQgAQkIAEJSEACEpCABCQgAQlIQAISkIAEJCABCUhAAhKQgAQkIAEJSEACEpCABCQgAQlIQAISkIAEJCABCUhAAhKQgAQkIAEJSEACEpCABCQgAQlIQAISkIAEJCABCUhAAhKQgAQkIAEJSEACEpCABCQgAQlIQAISkIAEJCABCUhAAhKQgAQkIAEJSEACEpCABCQgAQlIQAISkIAEJCABCUhAAhKQgAQkIAEJSEACEpCABCQgAQlIQAISkIAEJCABCUhAAhKQgAQkIAEJSEACEpCABCQgAQlIQAISkIAEJCABCUhAAhKQgAQkIAEJSEACEpCABCQgAQlIQAISkIAEJCABCUhAAhKQgAQkIAEJSEACEpCABCQgAQlIQAISkIAEJCABCUhAAhKQgAQkIAEJSEACEpCABCQgAQlIQAISkIAEJCABCUhAAhKQQBOBHzWNctA1CHSxyN9E+SLKhyhvx/I/8fp1FEUCEpCABCQggQch8IvwYxflmyj/30x5jf5fRSFBUCQgAQlIQAISuEMCT2HzIUoZ9EkECPT/cixcl8kB9X+6Q581WQISkIAEJPCuCXDirwX+52ivne5pIyEoE4FPI+PfNVydl4AEJCABCWyRACf6MvgTyLsGYxnD2Hy+SUADOIdIQAISkIAEbkmAU3wZ/DnV1079Y3by5cBSx35ssO0SkIAEJCABCdyWAEG+fIRPIO9PMKuWSAwn6HGKBCQgAQlIQAIXJsDn++XJfXfimrVkgo8CFAlIQAISkEAzgb9sHunAcwj8bWXy7yttLU3fxqAvi4F8NNC1THaMBCQgAQlIAAImANd5HxCgcyGIfzxj6f+7MrertNkkAQlIQAISqBIwAahiWb3xrdD49Zkr/H1lfldps0kCEpCABCRQJfDjaquNaxP444jCIdp/E6V8QvDxOJ4nBfnn+38d9aco3bE/f/lJpc0mCUhAAhKQgARuSIAAn38JMP3qXu03A8ovC7bW+xv659ISkIAEJHBnBPwI4Do3jEf+b9lS3fGaE/5asqautWxSjwQkIAEJSODdExiCQH6ap177nf7WE3857t0DFoAEJCABCUhgqwTyP+V7CCO7KGt8DPC6VYe1SwISkIAEJCCB7//yX35yJyF4jlKe5pfWB+FKQAISkIAEJLBtAi9hXh7geQJwzlMA5ioSkIAEJCABCdwBgX3YuPSUPzae7xEoEpCABCQgAQncAYEvwsb8+wBjwb2lvb8DfzVRAhKQgAQ2RsBfA7zNDeFX9n4Z5eNtlndVCUhAAhKQgARuTYAvAZ7zHYD+1g64vgQkIAEJSEACpxHgLwWemgT0py3pLAlIQAISkIAEtkDg1CSA3ypQJCABCUhAAhK4YwJ92N7yxb/y1wj5UqEiAQlIQAISkMAdE3gN25cmAbs79lfTJSABCUhAAhIIAqf+ZUASh06CEpCABCQggRYCP2oZ5JirEniK1Qjmp8qXMXEf5S3Kf0fhVw5rwncO/irroF5+lPAx2v4nytc1BbZJQAISkIAEJLAegTX/h8ClHyWMjec3FPiyYZkgrOe1miQgAQlIQALvnMAh/B8LxLduxzaTgHf+BtV9CUhAAhJYn8AWT/9l0nHOxxPrE1OjBCQgAQlI4M4J8Bl8GWzLOo/in6Pc+inBnaPWfAlIQAIS+LEINkGA4L+fsYQv4v08Sh+lmxmbur+Ni6+i/DEK+pn3kyg/jfIU5VTpY+LHUyc7TwISkIAEJCCBv/gLgj8n+/K0X9YJ4J8axqV5uxj7xQRg+k59ktBP6LVLAhKQgAQkIIEZAkP0l4F+jToJxVTwx6xfRWlJPGr2zOmecdtuCUhAAhKQwPslwAm9FlzXaONJwc+idEe8vFL/5yh8ie/UwI9tzFUkIAEJSEACElhIgEf+Sx7lr5EQrKmDxEWRgAQkIAEJSGABgSHGnnP6XjOQn6oLHxQJSEACEpCABBoI8Jk5j95PDbpbmUfy4uf/DTfcIRKQgAQkIAEe+R+ibCWIn2vH4C2VgAQkIAEJSGCawBDd5wbcLc7HL0UCEpCABCQggQqBl2jbYvBeyyY+0vDjgMqNt0kCEpCABN4vgV24vlag3bIevhPA3xNQJCABCUhAAu+ewFMQ2GLQvuRvH6CbvzHQvfu7LwAJSEACEni3BA7h+dYSAJ5I8Lh+iHLp30b4FGuQDPCHhxQJSEACEtgogR9t1K57NYsgy2l4a/LrMOjLzCjs5EnF3x9fL/lZ/texBoXE6GMU/mOityiKBCQgAQnckIAJwPrwSQAuGVBPsfjnMenjxMQP0fePUUgKuolxa3Zhz7dReGJAgkBiwKsiAQlIQAISuEsCQ1i9tY8AnheQJBl4iXLJ7wxM8dnH2nyEgB2KBCQgAQlI4K4IDGHtrQJoLbgS0E8R/ODRfU3nNdpYm2Tgi1OMd44EJCABCUjgFgR2seg1gmTLGgTSc4QnCLdMaFj7n85xwLkSkIAEJCCBaxF4ioVagvO1xmDPOdLFZD6vv5a9tXVeY32fBpxzF50rAQlIQAJXIXDLU3MZQPcreEzwvXUSsFvBD1VIQAISkIAELkqAoFsG4lvW+xO85ct4+MEj+C4KOm7pA2uf+zQjVCgSkIAEJCCByxHgkfU1gyWBmi/88Zk9QbI8rR+ibekjdHTlPuwqeq/pI2vBVZGABCQgAQlslsC/hGWXDI4EeNboRwgQ7AnYZQAfGV5t5gnAJX04VffSRKbqnI0SkIAEJCCBSxBYOwHgOwWcfocoSwJgaQfzl8ghBp8aqC81r1/igGMlIAEJSEAC1yTA4/g1AiCneB7pnyNDYQv1VmH9NfxYU0ffarzjJCABCUjgcwI//rzJlhUJ8Pj8VPkYE38f5aso3x6VcOr/aZTuWI7N370w5utjQ+3v7X8Zfb+JkmwiqCO0z8l/xYBhbtCV++Hw/0b57yiJz5VNcDkJSEACEpDA5wQI1qeceAnMKUijtYvCX8Mrv9DXqnsfc1OpzWn5Azt96KjN3Upb+mgk/aYC3BQJSEACEpDATQg8xapLAyQfGSThv9Ml8BPclupZOp7vFXR/Xvqzq/I7BHP6STh2UZiXCvW5eWv1s/4vPvPCBglIQAISkMAVCBCE1gpo19JDkCbxyOVXUZlLQkggnqP0xdyySoJzLV9Y5xAF+xUJSEACEpDAVQiccvq/ZmA8dy0+jiCY9wtpXjsBSH7uw878Y5WFZjtcAhKQgAQkME+giyFzJ+ZzA/At5qdTPv6dInwn4tZcSECwQ5GABCQgAQmsSoDgwun4FgF67TUJ1rsoPM1YI2je6vRfcjmEP/2qd11lEpCABCTwrgnwiPnegz/2E6j7le/kEPrKQHzrOl+wVCQgAQlIQAJnEeDXz279ePuUgJpO+UPY351F4IeT+0LXVr8TQcLjdwNWvPGqkoAEJPAeCPBYnG+Y38upP53u+bU8AnJ34ZtUfmyw9FcJT0loTp3j04ALvxlULwEJSODeCXBaJOjz2fjWT/zY9xpliNJFubb0sWB5usaeU4P0pecdwjZsViQgAQlI4J0T4ATLo32C/T7KpQPQGvqx8zlKGXiX3sohJqQnBuVJvlUX80hCcltoI9Cu4euldMCwb3XScRKQgAQk8DgE2Py3fFLNAx/Bikfr2Lym5GuQCJyaBGBfmQRg66WC95p6sZ2nPaf6vub9UJcEJCABCVyQABv9S5Q1g8jaupYGfE7f/GW/JUGsrzAgCThFsDcxGDIFW+dc3jf84HsCsKQoEpCABCTwIAQIkAS5cuO/dR2bCJZPFc7YTDDKP6Zo8YExr8d5JAiloLfmN3YslTwBQGf6st3YGrV1t9q2C39q/JYycrwEJCABCdyIwJaC/zfBgMAyRMGuXAg2BHuC9yHKWoERXejN18OOmv4+2pfIvqKH9fiPelqSlZoNW2vDDz8qWPKucKwEJLAJAj/ahBW3NWIXyw83NOEt1v4qyu+jfJ3Z0cU1J/xfRumjlAlBNnSVy29Dy++i/HuUMSbY93cLViORuLTdC8z5bujbsYzN+0Ol46fRVvpB/UMx9suok6D974oOmyQgAQlIYEME+rDlFifKdNIvAwj1lyi3PB0TwJ4muDw33r9uQsfazHmqsD8WvhRJwc7+WLp4vZSQCLB+7hN17mN5fy9lg3olIAEJSGAhAYLd2sFoTh/BvcvsTEG/DCJzei7Zj41TSUjfwHntP/wDn30UAmv6zYetBFh4jN0POPIRSxdFkYAEJCCBDRDg5Da2aV+y/ZtYlyBG2VLQX+IzPkwFX9gyZonONJaA+RplKsjDjvH7KE9RtiDYPecvfvF9AUUCEpCABG5IoI+15zZs+8cZEeDHgu+ugS3zCeAE8yFKH6VFak8W0HFrSUlJy3sG32E0lUTd2h/Xl4AEJPCwBPrwrGWznhtzCD1s5kMUAuLc+Efr51TLlxU59fPt/v0IA9oJ3jDqopwqBM8aQ3TPCTbyq4ifjjq4d2sF4VpiUrOzbMMWf4tg7s7ZLwEJSGBFAn3oKjfj1jpB7zlKl9lDYCOgtOp45HEE6cSozxide0mwnuI2tRZza8nD1Jwl9vJ+mLJtrg/bXqJ0SxZ1rAQkIAEJLCfAaXBuU8772aDZ5JmXy9Spd4n+ex6bB3wC7aWEJGuK035k4b4yj7G0ryWnPgGo+UPytKZta/moHglIQAIPQ2AXntQ24LKNDTkP/Fzzze5D4/xS3yPUP4XvBL0+yrWkJciWCUgXxpGg5EkKbWsL75G17+s+dPZrG6o+CUhAAhL4PqgTyMY27nID5rS/mxg/pucR2gmg+D5EKZ+CXOu91JIAlN8FIDCXbZewFz6Xus+8D7tLGK1OCUjg/RL48ft1/TvPv43CX7YbovxDFALbW5T/E+WrKPTzBTcC31OUWwW+WPom8nWs+jHK76NwfW/yIQzmvv33hQ0fQv8l3xt96D9E+dcoJDPfXtgf1UtAAhJ4lwQIGi9Rpp4MXOqktwW9nJifo3QbvPt9w33h/iXBD5gy75JCcL7WveNJA0mNIgEJSOAsAj86a/bjTO7CFX4V69dRuH5Pwmnyqyj/GeVjlCWnyy7G/80IrD9G+9tI37nNrEsQ/F9RuEaw+9+ifDzWefkiyu+i/DZrW/uSJIOE8drCPeP9uuR+XdtG15OABCSwWQJdWMbj/Wud3rayDidWglbfeGfgxPcfmLOPsuTEyxOFD43r3Nsw/OJEfun7+unIvVyH9kdle2/vBe2VgATuhEAXdr63wE/g5rSK7y3COAI+QaYMPEvrQ8uCdzaGpwtrsJljyT3IhYBPW0o8eO2LMVYlIAEJSKAgwKbNX4Kb23QfoZ/AQJIzRMHvViHAvEYpGRyibR+FL6FRamPyOYwnUHVRHk2uFfzhyX2snfKxgfuQEoHh0SDrjwQkIIG1CLCJEpTKwPZI9RSgawGjhSMBu+Sxi7Z+ZDJBKM35FNeMHaJ0I+MfofmawT/dC4J8PwKPe52SgKeRMTZLQAISeLcEHvXUT0JD0GXjJzCdI+hJAYdg/ryCznPs2eLcLoyCTZkkXatOslW7zykJIBHgWpGABCTw7gmwWb5GudYGfel1UsAfwqdupbvLXzREYNWvpPMR1ZBkpZN2eZ9JCvZFGRtbzl1aR2+6ZzlnPg5AF7bUkoR8rNcSkIAEHpoAmyCb4dINdkvjCSovUQg+l9jUSY4IKMo4gS664FS+L+BG0J26L8wdonAPDxUdpc4ldfR9iJKkz/RjlyIBCUjgXRJgY1x7w12yOZ8ydh82EyiGKPnGfskbuAvlz5dc4I51d2E794NAX97PT9FG/1JhDryZX+o8pc57PAm6cx3UFQlIQALvigAnstqmfcoGe4k5bNq7KASCPkp3gbsDA/6E8bUSiQu4cDOVc//fA+8t+J4rXSjgPcD74Zz3WUrghkIP7zFFAhKQwLshwMa81unqnE25nEvQ4LFst9KdwE8+B64FoiHa8wSIa4LBWmuv5MIm1JAg8Rcg+ZLoPkpL4vh0Acux4yXKKckANmN/7X1fe39cwHxVSkACErg9ATbxMvhuoc4Gv5aw2adAVdM75S9B5r3LOcGWAH1pOce+8t4PlzZW/RKQgAS2QIDgVm6AW6n3KwHqQs9rFBKdmk76506xu5VsuSc1fBxy6gk7fw89X9lpkgGeHNVO91PvbRKV4cq2upwEJCCBmxDoY9WpDfGSfXMBl7UZw6Pma0gXi8wFDMY8suAfvEmWWu5P6/sDvbeUPhYnISCJ2x8L/qVrkpynWxro2hKQgASuSYDPOTnxtG7ip45jk2WD5RTYR2FdZEmAQQdzLy3YVksCsBUfHk04KRPwCYyXei+gV5GABCQggQ0R4ER0alAfm0egfI1CsCe4jAmnrTEdU+3nJgJ9rIt96OF17OlCF32MpTyKdOEIj/T5LgS+c6+mWK/Vx1qKBCQgAQlshEAXdqy1wRNIXqIQ1Fvl3OSDAJ6eJLSuSVJS8/lTtE8lK636tzSOQE9yQ7CH1bWCfY0v91qRgAQk8DAEfnznnvxmBfu/Ch2/j8LrNeXrWOw/Fy7Yx3iSlJoQ/EkCfh3ly9qAjbZh919F6aP8dRTqlC8ubO9b6Oeecw++Pa7383gl2VAkIAEJSGDDBAgQ55wIdzG/O9O/U54AYPPTieu+xrza6bRsG07Uf4lpMM5P8nC/5Wke/lN8SD5q76v+EnDUKQEJSEACywkMMaUMfC11gk+3fLnqjP4EGwiAp0i3cK1Tk4wx20i4COT8ASJOySmQw5NCckI7TyioH6K03I9rjsGu2pOFkhX10q4+2hQJSEACEtgAAR53l5v0VP2ck/eUu0sDHXZwylwqBC7m9VGGKLsotZNqYkBfF+Uc4c/iEtCXsp66D5fsw859FJ7MUAjkfVbisirPlVb05LbWxlSm2SQBCUhAApckQDBcEkgIDN2MQQS79GUzNn/K67GNk++Y1E6LLbat8VkzHKY+hsCHpdLHhF2UqeSixb9LjsE2fEtBvlvqZMP48r6yliIBCUhAAjcmUG7OU8GG4E+gHBN0HaJM6aCfk3A3omSYmT+mG72sf650oYCAWFvnQ4Ny+PBof45DTf812rBrF2WI0jX4s9aQ3DcTgLWoqkcCEpDAGQSmTr35ps1JcSr4E/SmAhhBpyWA4kofhUA1pW+sj3XWkOdQUp7cpwJXF+NJbMo5Y3Zes30fduEPNt5KXmPh5DP2KBKQgAQkcGMCbMYtwaifsJOT95gOAuLU3DG1JBsE3FMCKsFuDUk2HEIZ/tX0dtG+O/aPMbhFOzbfOujn9yBPNPdr3Bx1SEACEpDAeQRScJsKUlMbNkFyKkj355n33ewhSn6CnLIVWz6ssOacii4G7KJM2XKLvlMTrjl/z+3Pk8Sp99O56zhfAhKQgAQaCbQEqX5C19RHCATtNYVkg0DyEuVTlNz2Q9SxhTGXFPSzfgu3W42BBZy2JH3BbEu2aYsEJCCBd0lgLkhxopwS+sd0TH1mPqVzSV8fg69x4ifw89sGU/6OcVirnaRnyfr7GN8tgXnBsfDLOVxwKVVLQAISkEALgbngRBAZkz46pua/jk28o/YtBP7EGN4ICc9zFPi2JARr/JrkcemzXkwAzsLnZAlIQALrEpgK4PS9TCw39fifuYeJuVvv2lLgT/dojFlLQsDTg25MwZXa8/faNZ7aXMktl5GABCRwnwT2YfZUEjD1GH9uLno5qV5SCNTpz+ru4hqbDlEIeE8nLNzFnFs/6q/djyVPU1JCAA84JH08Lbil5H71tzTEtSUgAQmsSeDe/zfAMRY/HeuI9pZT3O9i3FdR3ib0zHWRRPC/3CVp/Z/ufhMTWLtF8IXxQ8vgG4z5twVrfh1jKbl8ERWKIgEJSEACEviOwNxjfE7UY1I7qdbaOIWeE3ywoaZ3rm3q6QU+YRN/wCg/Jc/pvEX/MHYD7qw9Z/coPt3ZLdBcCUjgEgTu9QkAwW9KOBnXZKx9bCxB/OdRvq0NmGn7Q/T3M2Nq3btKYxdtfGTwyyhPlf5LNX0diin4/5/HRWDI0wyebtR44jc+vB3HP9LLTx7JGX2RgAQkcI8Evgij5061tUDZN8wr9R5iTi3QzXGbe0pRrkM9BX+C/a+Oddavjb12G5/Fn8JhjtMt+1v8yTnPPZ25pS+uLQEJSODdEHgNT6eCYAqmOZB+Zs6UvqW/ljZn39Raa/fxxGSNjwzw6VHk5fhemAvq+b1gjiIBCUhAAjcmMMT6U4GSEytPCnLpZ+ZM6aOPIIqOOWHdQ5Q5fdfoT0ELu89dbzfn+J305yy4T2PSRUfObD820HYJSEACErguAYL8VFArT3f9zPgpXXkfQYNH9GWCgfe0EShbdV16XEpaCF7nrAXrlkfmMNi6lCxq9xEf+ig5M+YpEpCABCSwAQJzn7PXngKcEwRrcwkKr1H4iIDXuaSkpuMe2oYN3O81TOhDScmbtpqUY00AapRsk4AEJHADApzc5gJu+RSg3PzzOhv8UxROul0UTs9T499DH3z7KI8iu8o9zf0bMkfLBPPwKBD0QwISkMAjEHgOJ6YCcfnoemwswT4Xkgs2/LHx76GdJxpjj8cLXHdTLe8b748kfVzQn6RMAPK+bJiXEpCABCRwKwJzgToP7lOneh7jd1EIelPjyiDyaPV9+N/f6mZecF2e7pT3apeth995kE/1fM4FzVO1BCQgAQksJVA7qZUbffoooLapl2M5FZZtj17H510UPv54VMG/8j6SFCAkffQdjnVeaklg1u2lBCQgAQncmkAXBpQbe62e/rhOre+R2gjmQxSC2nOUfYUPY2gnMeqjvAepBfT0EQcMeA/AJEntPcE4RQISkIAENkTgNWypbdjvrY3A/sin+FPfcumEn78fDpmy9BQpPSmCYe29059qgPMkIAEJbInAX27JmDNt+f2Z8x9l+m/Dka8fxZkV/aglRR8z/fz5ZYSnBEht/LHLFwlIQAL3T+CREoCv4na83f8tOduDL8/W8JgKagH9j5mr/fE6JU//awQDTxIUCUhAAndP4JESAG7Gf9z9HbmdA10szX8z/KjC/2BYSjrt98cOgv/b8Tq1lXP+rmywLgEJSOAeCdzrfwc8xnoXHUv/054xXdds/xiL/aGyYHosnXf1lXF5UxeVt5kxtW7m/DzKv9c6H6DtpxUfvj22/ePx9ePxlVN+7YlBRYVNEpCABCSwFQL3+GVAvrjHbyi0CgHqKQoJT/lFNdqVzwnsK6z64zD4wzEFfRiWXFM9fUnw8xVskYAEJCCBmxKY2rzHNvWttBOI0h8jaoVI0EoBDD9IgJTPCdQSgCGGpW//H7Ipu7gee0+8fK7aFglIQAIS2AqBPCCObeRbbydg8VSA0/6cDDEg96ebm/AO+2sJQM4sD+yfgg+l9h5BjyIBCUhAAhslsAu7apv3PbaRzOBPejxdQ94X/jL+XCHxmFrzXP3Xnj/3nuiOBuUJ1xBt5XvGBODad871JCABCSwgcM8fAxBwCDKU8kkGbbUnAukxdh6sugW8xoYOI+uNjd9y+3MYVwbzVN9NGA7zfB51RQISkIAENkygDJ5jm//a7YdgQgKSB2quhygtNo0FmD7m107ktNV8GNMTw5uli5H5o/GpidjxGgXftyhjnGDXTRg8RF/Ol3uoSEACEpDAhgnswrZaYLx0Wx74Szy1k3ppDwGmKyeO1Pm9/amkoh+Zt6SZoN6i51OMS77UEpUla15qLElRyXvuW/1dZc6l7FOvBCQgAQmsQICTaLnZX6PeTdhOMG2xgaBOcB9LJvhyYC2YlboPE7a0dsERPWO2oKePkq/90qr8yuO6WC9PVHaN6+N/7l/jNIdJQAISkMCtCJQB8Rp1AkwtWA7RvnR9EgGCFL8aSFDdn6CDdc8V7JgL6tiZ/MPOrQr35jkKiU2rlNxb5zlOAhKQgARuROA11l0adNcYT8BMf9iHgJMHxzX0L9FxWIF94kgSUEtu0hLpIw78fSTB75x5/0jO6YsEJCCBRyQwhFNLguXaY/exPgG4ppckgUBJ0OS1NqalrWUuHM4RTszJFvzpJ5RNJQgT0zbdVX53Y8r/TTuicRKQgATeCwGCUUsQvcWYrrgJLYG8ZidqCMq1vtTGCf4c6Sv699HWnaP0juaaANzRzdJUCUhAAokAgWoqOKa+IcbNBdIWPa1jWIuPCbooJCo8EWidm4/7RcNc1jpH+gnb5j4WOGfdrcwt/V/y/YGt+KAdEpCABN4dgfL0NhZkAdM6dkzHVDtBGP28To27RN+5CQABb8ou9H944HdWX/jPfVQkIAEJ3DWBv7xr69uMb338zUn2/2lTuXjUW8zg/5H/XZRbBI//WGzxDyf8w8z8LvpbOc+oWqX7kZORVQCpRAISkMB7IXDq4/WpU++Svjzo9wF9ydxzx5LYnCt8RPFpwm6C/5Yei6+dZPWF72vrP/f+OF8CEpCABEYI7IoNnKBKYKScG2Bb5pOAYAO/z3+40prJx1huFSEJqHGkbWvSh0FrJiToy+/zlp52bI299khAAhLYFIGh2MDZzGm7VgLQkiRcYsyaQTDdUHSS0OQPjrbeAAAgAElEQVT2bjEJeE4Gr/DaF/7uV9CpCglIQAISuAIBTq+XCLBb00lgJjgRkPsLcq09DdhaEoCNawks83ttArAWWfVIQAISuAKBT8UmvrXg3WrPIfzgyQUn8T7KmoFu6W34EBMIhsn2rSUBS/0ZGw/n/P5wDxQJSEACErgTAvf+uJ8Epr8wawJ6erxPkCO4870F2qekj87XKARJrrci3UqG1H49dCXVqpGABCQggUsT6GOB/BR3T9cE/0ud9Eu91Gt/r4CEgCRqLhko9V36vk7pf47ObmpAY58JQCMoh0lAAhLYKoF7CvrJVk7klwqqBEjWYY1dlL64cV3UhygEfhKAZBMJCX/F8FJ2hepVpAst+xU01RIAdCsSkIAEJHAnBAhcl0wCCJIESwIGAZXgc+566LuUpAQgtxGb+5EFac8ZkjjwEcGWE4HXCX9G3PysuZYAwEKRgAQkIIE7IUAwPTcgT80n2NTkKRpJCKbmjvX1NYUrtRG4CeK1tUkEPlTWYQ4c83lbTgQS+4orzU2wKBn1zbMdKAEJSEACNydAMCg38rXrJAHdiKcE1LGAO2bHmK6RJRY3P88wIdgT9GsyRGMeHA9Rh/HW5FMY1J1hVC0B2KKfZ7joVAlIQAKPTYBANhZo12yfOhGTICxZ69w70oWCn80oqQW43Eb8mQp4rEEiQaBl3m5mvWt3k3gNZyx6OPqVM+FjAUUCEpCABO6IQApSS4LwqWMJnJygCUAkH3xePqdrH2MILswj8JwrBGbWRNfY5/XdccycbSQv+DEl6CJZ4PVRpMbFBOBR7q5+SEAC74YAgbW2oW+hjQB7CUFv8o+khESglCEbM8WCRKIvJz9wnYSnxmP3wD7rmgQkIIGHJMDptLahb6GtvxBxgtinwu9aIGd92ltY1JKIC5l/U7UwqfHY39QqF5eABCQggcUExk505SZPwGRseoRe9o/VOWHvjvN4TNwaUNHXL/amfUItCWDN2mN9kiR8mLO9NrfdouuP7E5Ycog5tXu9P0GXUyQgAQlI4MYEytNwbYMnCCYhGNbG1No+VHxrnT9U5p7a1MfEUt9YEkDSkvubr9kd9RDwav6mRCmfs9Xr2r2Zs7X2NwASh7m59ktAAhKQwMYIvIQ9tWCWt/WZzV3D+LmgcGjQQaKwpnBCr+mkreY/XKakO+or595TEjDlX61vH42lv6leG2+bBCQgAQlsmMAQto1t6qm9/JY3wXRuDv27Eb9b1uQkzil9LUHXIUotQGNnzZ/a2NIe9D4f9SYdzHtESU9Gak8C1rxXj8hOnyQgAQlsjkAXFtWCX95GMGZckqFhTppP0C3/Vj7BYm5N+lnnFOHxdleZ2EcberHpn6IwLsnu2Ffa1ZIEJB1dXJAMlAnTn1d5jKva/esfwzW9kIAEJPC+CBAQy8BX1gmEKWB2DePL+Snw8vSg5W8AMP7UpwDD0b7a7/q/FLbvM792I34xRvkhAd4P+T3uBSQBCUhAAvdHYCzw1YI4Y38RheBc61+7jfVOEYI2thyi9JkCTq8124fjGMZygmd+GocO5YcESOTye/3oTz28/xKQgAQekgCPrdcO3MORFE8NCOLn6OdxfSkE8vwRfq2fwJ3W5eTPHKT2GTbjno79vswTKBmaAMwzc4QEJCCBzREgkJ4ToGtzOT3z2X8S1qidvGtza22cOLujMl4/RWEcQZ7gXksGyjWZQxuBvrYG9qUkIS6VCQJlAsD9USQgAQlI4A4JnBOca8E0tRGgOcF3UQjUU2PP7duH/r5gXyYBc2s8F/Ot1gmUCQDsFQlIQAISuEMCnODmguO5/ZdKMkq7DuFL/kRgWOCbJ9m2N2+ZAMBckYAEJHCXBP7yLq1ez+j/Wk/VqKZrPV7vwgIe96e/0f9lXP961KofdszZiN65MY1L3fWwvyqs7+7aG42XgAQk8I4J9OF7eZK+hzoBmY8WeK3Zu8vu6TAyJp+3L8bz1ILvDCSh/9ZJQJfZc6nLfkYxHEreJkYz0OyWgAQksFUC5YZ+rTpBlkC9ZD3m9AVI6rSXetCdZKj05+Nfs7HMQ1+XtfXH+fm4rPsql61rE5Dzj0JajWPevhhcBvfDkUPOrm9dwHESkIAEJLAtAmz6ZfAcqxMYa0FgbPxUO3r4ouDUmLyPtccCWxd9tSRgiPYku7gYWys/7TO+DHy07Y/zy7F/WuDCF6zfN6yR7GwZm6tjPHOTDHHxktW5rPG7FY/CNKsSkIAEJLCUQPnFrtomn9oIEATHT1Gmxl2ir59xjOSgTAIOR3vT1F3FbnxpkS4GcQqHQSm1hKEcc26dYPw8o6SL/sQeX5cI74PcN+bndfgm3fkr8xQJSEACd0fgvX8JkBtWC2hjN5Ig8G2U1i/XjelZ2s56H2cmfV2xq4u2IZuHnqTrLa6/jPLzrH/qkvG/HBk/TE1cqe9/Qs9fz+h6yvrz65lp33WXX/Dro+0tm0i9Jn9Ta7RNAhKQgATug0DtZDfW1h1dWvLkYExXS/tuIUJOyrne1hP+wmV+MJwkKnE5R8/UXHhTpoQnFLnvJGytgg85a/Tk65W60zrMUyQgAQncHQGfAHx/yz6O3DlO+6X0xwYC7VvZuXK9dqqfW+K3MYB5SZYEwTndY/1wWnriHtM11n6Ijrlkpism92PKRtr/eGxP81gT+SLKmH/dcYwvEpCABO6KgAnA97crD5j5DeSRN4/Mc/n7Y4WgN3ciLaYuqmJT6+P5UnFpc18OWLn+36HvN5nOLq45Iae/SbDGcl+Gkq9mFH0o+v92Znze/YeopICf2tP7Yiz4M65bsIZDJSABCUhgYwTY4NMj3fx1ONrJa2r/prCdoFGbe04ba5TBrFh2tPqz6KHsM7uG0dHrdJAI4W+fqcMH2rDji3WWmdVSMmftLgo8eJ0S+pOdz3Gd3+c+m8g4nkTka516rzK1XkpAAhKQwK0IlMGD+i4zhus0Jj8RDll7TcfStlODP3akoFuuecknFSDqjwxeqRwl50XAvHQSkGwofc/rjGkReOW+lHPKhLFVb6nHugQkIAEJbIDAPmwog0d+CiSAHY5jXgp7U3s5/5T6KcG6q9ierz2nM09ocA19ZVvh8g+q+fpcI3kbtlw6CehjjTneU0H9e6u//xdeQ95QuV7CtzLdJglIQAIS2AoBNv1aAMkDYX8cQ2KQn2iHkbk1fS1tZYIxx4jxU3qnEgD82xcLPEedgL1EDkcbdtkkrnO7LpkE9MVaNR6ln2P+wSu/v+W4rlgr97kca10CEpCABDZOoA/7akGj3NxTsB0Kf0gKavNPbSNYfmhkRmCbWqeWAPBXCPENu5mfC+3omwqCxZQf/Fnj7tjJa2nXpZKAvrJWuXbpZ+lDqs9xH4q1WvWOrWe7BCQgAQncmEAtiNOWB0KuaSOQ5TL2BKEMQkvrLd+kJwBN6S0TgHL8a+FL6u+L9qnqkNmwywaiu7StXG9Kb2sfQbtcp6yXHFp1l+NqPpVjrEtAAhKQwB0RqG3sBJGh8IFH5LR3WTvXZcBZq06yka+VLfvd5cvM2k/ZhFqgLANjSmb6cqGinp+Uu8IG6ghr1zjsjv1rvtTWydtKP1vXxk8SP6SLUlsn9R+H+SIBCUhAAvdEIAX2coMvT/v4dIgyFM4R1Mq5a9W/Cd19sV6qYsfUOvk8rsux+F0KSUUe4Mv+5CvjksAp6aY/ySFrz9c+NSBnqn9wWfpV1vuxiRPtzEEPvhHkk99r6J5Y1i4JSEACErgmAQJeubGn+lNhyBD116KNMWPz12pn3VK6mXX7bALXpS15f6m7Vi91pEQhPTlI+pPeqScUQ22BE9v2Ma/0La8ne5aoL5OaMf21JGrJOo6VgAQkIIEbEzjE+rVNnnZOgLkQHEoZm1/TeWrbUC4adZKRMX19Np7rctzUSb+y1HePwb/J9KTgVyZQ++Nkxpdrpjp6lq5fs4m23cQ6rNePTRxpL/0Z84F21lYkIAEJSOCOCUwFkfKR9RB+9oWvU6fdqQCypI+g2RXrYseYjtxGkphyXKGqqUrQT3rwOUl+YqZ/OHaU7bkNhxhTJleZyuZL1ip9y+vJllaFuY/owQeSAmzF5lz3vlWp4yQgAQlIYJsEnoqNPd/kCbxloCqTAgLEVBBaq++1go+2mv6+GFuOqahqatod1+M1SRk0E7Py44HShn3TitODuDel3ryOLdyfVsGmNL+896WfjFMkIAEJSODOCUwFkV3hG4GglEM0TOmY6yPwoLc/ljF95boEQAJVqb8ch/40hutWeTnOY04KpAT2PKh2xzG5DSQmfaW9tLNMpmLKYhlLgvK1do1ac5Zl4kC9tL8c07iMwyQgAQlIYCsE5oJIlxnKpt8XhhNgyuCwpL6P+b+K8osoU7qKZb+r9lHKtcpx6E9juG6R0o6p03SN36eKXaWd1PsWYybGML+mN29rSTRIptKcsfHlOsOEXXZJQAISkMAdEGAjLzf3vM5JOJeyPjd/Sndr326C41P0pdMrgbeU/HH8vuys1Mce37MGgbIU1m/1oxx3KJWdUIdNqTevY9+c9EcdNX5pLuxyvWOJwtxa9ktAAhKQwEYI5Ke/WiApAx8bf5/ZzlOB2ry12ghwtcCb46Mfm2rjliQAw4wvr/mi2fVhZt4UC+w+V7BrbI2uQTk2MJ97OSblGvuxgbZLQAISkMD9EODkNxZAaC9Pe2VQnpp7ah8Bpl8B4XPm21TQ4s8Qt9haO1EPjXNL/SRX3Qo+ogLfSv2HRt3c35zNUJlXPhnBdkUCEpCABO6cQB4kyyBCvQwkXbQRMNKJuzbnnDaCCydOgvLUqbQFex+Dki2lH2n+LhszZzc6ak8aaJ+bm/rxr5ZItPgzNgZ95fr41SIE95dsYG1eTX/XotwxEpCABCSwXQJs5GXwKOtDYT4BgUDG/7RXjl27zhMKvig4JmVwYjwJBLaV9uUJBYGcsUvtZU6ZBAwL9JRPVGLqKnIobOgbteYf6zCnZl9X6IbZ0KjfYRKQgAQksGECc4FwX7GdILs0eJ4zHhvzAJ5M6hfYgQ5+4+AlyjcL5pV279Li2Wsrj1qArahb3NRn/tTu15hC5iXhusaY/jLBqDHIVHkpAQlIQAL3QGAII8sgV9a7whHq5wTRUn9LnfWwtZTW4NuyRuuYMpDzVKDG4/lobB+vBNF9afyKdZ6GYFf5hGKNJUiacjaf1lCqDglIQAISuC0BAsZc4NtVTCy/HDanY66foMI66KVwfajYNhS2YD9z5/Sv3V+elqnnSQBBM5dk5yUCdLHU6tU+NJb87tGP1cGoUAISkMC9EyDYlht8XiewlRs+9dqpd0rPWF8/ApD2cg5rlsE3BddybF4nSXit6JuaM9WHrlKwi/byCUEa18XFUE66gzp8Sxb9HditiRKQgAQkMEPgKfrLDb6sDxUdaz0FIDjz+XwufPlvLMFgfCkpCagFevSkBGZMZ+kv9UOU3fG11t+VRjTUy+SlYcomhpTcxpKcTRirERKQgAQk0E6AYFcLcqltLOiWgWFKx1wfuvZRWnQOFdcI8q9RSl+oJ0H/nB25zyQiw8gc2h9B4DaXmJTcqCsSkIAEJPAABF7Ch7nAWAsSu4Z5c3pP6T+MME9JQKmTxOBnUcpAxjh8IMEp58zVH+UU3IfvlFzSE5PUVnt/FFOsSkACEpDAPRLowui5gEegLKVvmDen99T+oTQmq2Nrq979cR76DgvmTa0/YdrmurrCIhK90jfqJc9+c55okAQkIAEJnESg5RRcngxZaEnQLIPIOfUUuMecXfIdhedMyRDXcyzor7EYs+We2p/C2PLpRhdt5b0qx9yTj9oqAQlIQAIZgSGuy02+rNc2/drj4XLeperdzB1s8QnbvolSfsSBbhIDPj4g2WAMrzB41OAfrv3pVzG5zuUQlfw+kgQpEpCABCTwAAQIanOBmiBQCoFzbt6l+vOTe2lXqnOiJXjP2VBLAsZ0PnJ77QkA/pIIlQwfORF65HusbxKQgAQ+I7CrbPLlpj98NqstwJZ61qgTlFqEJMUkoIXU92O6ylCSrfKekSwoEpCABCTwAATY0MtNvqzXHv22JA6lnrXqrafQJUlA/wD3cm0Xusp742XtRdQnAQlIQAK3I3CobPRlsO4L81oSh1LHWvUlp9DWJADb+B8FlR8SKN8b1BUJSEACEngQAi3fnt9XfG15xL5W0M/17Cq2TDUtSQKW6p5a9xH6OPGX97B7BMf0QQISkIAEvv+Ge7nJ1+p9AYtgWRt36bZDw03jKQHjsAU7hyhlwkI/yQ9j80DHRx6tHzPE0IeW2pOe54f2WOckIAEJvDMCLcG8DLx9MLp0sB/Tz6l+TAhQ5TyCf3mapS0P9EM2D1+n1hhb+xHbS5YkSIoEJCABCTwIgT78KDf6Wn0o/CVQ1sZdum3slI59U2szL+8v/87BPusnQTAJ8NcBi7e8VQlIQAKPR6AMjilQvhZBMT81107bUwF4zT7szQM0X+I7RX+X3cqnQkf5lODx7vq8R0OFK22KBCQgAQk8CIEh/KgF0D7a875d5i/JAEGyNu9abSQChzNseCn8Ke1G/3uWrsKWpFCRgAQkIIEHIlAL5ilA8pqCY5/5nLeXwfMe6vicP9XYZ34m+8uPCh7olje5QhJU3sumiQ6SgAQkIIH7IFD7lUBO1whBMgWCPGh20V5LHMqAsWZ9F2uyLjb1Ufgooha4W9ccYn6SsYSmy8a8t8vaRz05s/fGQ38lIAEJPByBLjyqBc30WTuvqZ+Am6SWONT0rNWGnTWhHVuWJiSvmbIhrmt2khi8V8nve2KTM3uvXPRbAhKQwEMR2IU3ZQCkLUke7FM7J/GlQbdcY0k9JSRj4LFniHKI0qIX25P0I3PQ9Z6lxhLOigQkIAEJPAiBPvwogyYBMm32vObBYHf0+7kyr9SzVn1YwJqxteBV2pKrLPtSvVuw7qMNrX00suQ+PBoP/ZGABCTwkARqATPf7J/C6zxI7o4UPhXtY4H03HbWWSp9TMDO2pOKfaGs5j82o2NOeDox94RiTscW+/G9vG+n3Ict+qZNEpCABCRwJDDEa7nZExRzIWjmY16j3lfmlXrWqpOEnCrYyUcZFJ5cpKcbSR++1Oxk3pzsjnNbxs7p2lp/LXnqtmak9khAAhKQwOkECIi1zb7PVHLKLYMkSUKZGJRj1qqzVhm4T/f4hzPHvtSY+z+2Vnfkgo5ThMRmq08QaokRCZQiAQlIQAIPRKAWBAkAuaTT7lpBfamelwvx7kNvzZaucT2CeOvYUiVJDcnNFpOAIewquWCrIgEJSEACD0SAQFRu9tS7zEeua2Ou2UawvYTUnoBcYp2aTrjuonAPtiTYVbu3W0xWtsRNWyQgAQncHQGCULnhl6fu2phyziXrny5EtebXpZKNC7lwEbWHhvfERRZWqQQkIAEJXI9AF0uVwZuTcX4yrY0p51yy/nwhHH3Fd5KC9yL/HI7WTva1xIj3hCIBCUhAAg9GoLbhD4WPtTGXDPqlbtbvLsB9Hzrztcrk5wJLbkJlf/Qbf8skYCiYJD4+HdnErdMICUhAAusR6Cob/qFQT5Aog/It6gTsX63n+nfBr/wuwHCi/i7m/eLEudeelt9PmOYydq931zbS9SQgAQlI4PIEXmOJMqD3xbJ8Fl+OuVX9ELb8U5RuBTScbPMk4NSnAPBKPOA5l6jwCP6Wkt+78ilA7b6eyuWWPrq2BCQgAQnMEOijv9z098Wc58qYcs4adQLNSxR+TbEl6cDOc0/eXejYZf4RwKfki0pn7dcq8WUs0B+Oa1ZUXaUJbul+lX/TIO/L7+lwFctcRAISkIAErkqgtun3mQVdXOfB4FLX+ZokAq3rHGLs3Kl7Dmi+HjzykzHXBPOUlJSn5loCkGxnTjk+JVS7OaMu1J8ndPiayxj3ucToQqaqVgISkIAELkmgD+VlsC0DAwGgHLN2nVMz6xBsuV6q/xBzzkkEUoCfW5cgmcscG3zJkwCeIiT/yhN4ofoi1S60Jh/xORdsG+PAPEUCEpCABB6MAAG/DHxD5iPXZf9W66cmAl342JJ4oD8X6nMs0Iv+JPlTgyFrv9ZlSlqwq5Q8Qcn9ukWyUtpmXQISkIAEViYwhL4yiOWBbiwolHO2VMf+p4Wc8sfjU770R71dhdvYvH1mSzkv6Vto7snDWQ87c5tyZak/94VkgfeBIgEJSEACD0aAgFkGryHzceqz7nLeluoEuX7BvWL8nP08JicY7hrG5rpyO/K5BNcPC2xcYyh+8iRgTPCx5OBTgDFatktAAhK4YwJDZcM/ZP7c41OAPIAR8PqG+9NVOJSB8NR6HnDLdUgChgb71hrC+mMBnWSk5qNPAdairx4JSEACGyNAwC83fh6LJ7nXpwC5TwThbob7rsKh5HJqPV8bW0o9Sz+2mHFlUTdJHl/CLG3K62NJw6KFHCwBCUhAAtsiMIQ55eafn/oIEIfKmHLOPdR34Uc/gr+7oI9Dtibrl6zgfe2PAzCJNVvuLWMUCUhAAhJ4QAK1z35fMj85oZZB657r+/Cn9geFLuUTp/5cakH32kkAwZ81W30eCh+sSkACEpDAAxDow4daIOgy3wiatTH33EYA3EXhbwnMPQY/10+epCR5HmFJIpaPy6asfllL+qZ8PKxugQolIAEJSGATBGoBnrYkXVwsOTFOBZP32DcULMcYlE8LsmmrXfahaWz9qfbch9WMUZEEJCABCdyWQB/L1zZ/2pMMI2Nq81ra9qHvJcphZb0ta197DCfuXKZO4Hzkckk59YudJIDXekJxSf/VLQEJSEACBQECchkYCc65cEItx5xaz0+7pwalU9e+xLz82/JdcCpZ9RnIsi+3B+aXDLT7M+4hCZsiAQlIQAIPRoAvhtUCYx7YCExTp9fa/Km2XcZwGFl/av6W+vhsv5Q80OeBHb+nbIfFpQQ7+yg8aSCgfxNlypayr7uUYeqVgAQkIIHbERgLTPmmT6KwNGiUQSSvEyTTifeSTwKwGf2p7Ff2A5/4MmF+eodb6fuh0laOIcm6lmDv2H0v7aION0UCEpCABB6MQBf+tGz6w8i42tyWNoIzJ1KC0ZrJRb72WFAloXmOQiKy1tro4rcLuigt/tfG5IlEqLm4DAts5V4pEpCABCTwYAR24U8tIA2Fny8j42pzW9v2oZNA3Tp+6TgC/Zz0MQDfDhe0o8Vu7Li2DI0+w0aRgAQkIIEHI9CFP7UAxem4PJVy0q2N3Uob9vVRhijJVq5bpYuBJA2XTErGWPWtRq48bgh9Yzbl7fl3Q1Y2QXUSkIAEJHArAmOfxe8Kg0gIbhEcWwIUY7Atly4q+DYU7S1VfGUeDA5RWm04ZRzJ1rUEHuUj/ZcG/7Cxu5aRriMBCUhAAtchQLBjg68Fr74wYWpsbf7Stn2sR5A6NdHoKsiwudZeGVptGqJ1qR9Lxl/zdM19JuDnAp9Dg4/cG0UCEpCABB6MAI++a0GLwECAyOVDVMYShpqOJW0E/rReH9cEnbH5jCV4MibZs2YwxY5L/9ng3N9Y7qLSh3ZYwquU4diXWO+KemrnfaJIQAISkMCDETiEP7VgW54YcXsYGVubv7QNO/qM7VhyQpDKhcSkK9pOqfYxCd2XSnISjxrXU+xtnQMb1i65pflwp//12EAylWxNrzDp0gRfJSABCUjgMQj04Ua54ac6faXUAsTY/FPad7Fgd1x07KnDUBp1Rv0p5h6inGJr6xxO/CQ03Rl2njOVpGMYUUA7fuRPUbC39G0/Mt9mCUhAAhK4YwJs7uWGT/0QJT2az93jtFgbv2bbLtboohCga3r/KTfoxOuxpwy19aba4AQTgigFvf2xnGja1aZxf/ENzkm6uODUX/qcJwnZcC8lIAEJSOBeCXRheLnZpzqnx1IIGrVT4piOc9oJrGNr7UrDFtbXSgCSf/tY/8NCG7YwHMZ9YcgQ9dp9u0f/tsBYGyQgAQlslsDUo/2+YjWBoBYg8jYC4qFh3Jyeqf5dxbYlTcyf0n9K3xpPJ5b4cO7Y9MSi1EPyV/pPMqZIQAISkMADEeBUX3vsSwA4RKG/lLkTNMGCeVPJRRlgTqkTxM+Rp5iMj6esPTbnXJvO8Wfp3D4m1O4vevCj9NGPApYSdrwEJCCBjRMYKpt92vzHAtrY4/ly3pTuMsCcUue0eo6kRGUsCTrFJh6tjwXWc2xde24/o7CWBMzNmVFptwQkIAEJbI3APgwaC3aclEv5MDE+6UEngXBoGDu2dtl+CF3PUTiNop/rJcJ45tVKudY59fQUZIlt1x7bkqSUT3FIlFrmXdsX15OABCQggRMJ9DFvLOCNbfq7iTlJVwqEnIrH9C9txx4SkFNkWNGOObvvIQloYQhrfEn+7lsmOUYCEpCABO6HwFRAJ4CXQmCYC4L0E7CfGse26EtjhtKgxjrzsGnJWqeOJXCemqw0unOVYeW9frnKqi4iAQlIQAJXIcCj3anAOFSsyE+Gc0FySvfc3LH+Xdh0yiPpLubto4zpXbMdv/sKu3trIujnXEjqFAlIQAISeBAC5We++YZPIOsKP6fGrxlEp3SRhJR2td6O5xh4icSkZi//18A9S5kg1t4P9+yftktAAhJ49wSmTvWcmnPpo1ILdtduO+eU3YUPr1fyA7Ywu1cZCk74o0hAAhKQwIMQKD/vLYM5p+ZceBR8rVN0bssh1i1tO+eP8eBHTWe5xhp1Aie2wnorgi0wmJN9DMgZ7OYm2C8BCUhAAvdD4KXY5MugVwauL2L8tU7RyRZs7KIQgNYISOi6RSKD7QRVCr5gxy2E4I8tcJ0S7n3Om+thaoJ9EpCABCRwPwQI6Ico5Uaf6mOPfq/5nQDsw06ki0LwzO1Lfcchsy/XtH2Ma2q/xfcF4JXWH2Zo1RLEMimcUWG3BCQgAQlslUAfhk0FKgJmTYaZeVM6l/aRiOSBvot6SgTKvpqteVvtZLvUnjXH75legAQAACAASURBVAvf5uxfoz+xw4+pgA7z8mkJ9aVJ1xo2q0MCEpCABC5AIA8IteA2FiSGsKU2/hJth1irL3wnED1X2ucQXdPuFhZLk5g5/+b6uxiQ7NrPDK6xura9MybaLQEJSEACpxKonfTywEXwHTv1EYBbgtxaY3axXneqo9m84cp2z/l/7aDKk510up/DSZJQ2s99UCQgAQlI4AEIPIUP5Saf118mfKwFiCld5/YRuPj8fCwpmTD1B1191MpH3Ofads78aycBwGhh+CHG1fwi+VMkIAEJSOABCLyGD7WNPrX1Iz7OPUGY0nlO3xqJAMFtS0nAboTxrZvHvjw59p64tb2uLwEJSEACCwh0MXYqGB6if+zEyGnwnGB+zlxsfomC/afI1pKA4RQnLjyH+879L+8T7OGnSEACEpDAnROYC+QE2jGpBYgyYFy6vgvjujEDJ9qfou/StrXqJ6iOJVoTLly8qx9hxH3for0XB+ICEpCABB6NwH5ko08BrB9xeJiZ1xoA1xh3SiIw9fQDm0iO8B0/X6OMjaedR+afopzqC/ZvUfC75hO+KhKQgAQkcOcEurB/LLix+R+i8Nh3KPzkFDg1rxY4Lt32Eja1nk7nAjb9pS6eHBCscz9YE4HROf51Rz3XfBlmFpu6x3BQJCABCUjgzglw2p0KXvTXTn0Ev6l5t+gjKeln7kfXaDc+E9hLITBy6j8c9TBuf7w+1eexP8JUrr1m/bVBGUnPmE+8LxQJSEACErhzAlMBjKBKICiDIfWx4HDrdpITAnVNdgvsxvep/5BoiP6UCJzjM0nEtaUlAcCmKV74r0hAAhKQwB0TIFgS7MaC2NgJdY3gN7bmue3486vKPcHXqaBWW3cfc8oEKFc9ROVcFhVTL9qEzX3DCvAa8w3GU1wa1DtEAhKQgARuTeApDKgFP9rY6Gsnak7aY3O20k7w7itwx37ffcpu/K1xSOrRWSZSrQlHzcaK2as2TfmSL4RtY1zG3hurGqoyCUhAAhK4LIGpgL6rLD2VNIwFjFu1Y39X+DBEfak9BDz+OmGpK6mmnaQj6U0n5MPMWls/SU8lTJ/Ct9ZkInHyVQISkIAENkSATZzNfCwo1oJUeeIdm7uV9jIRwKdTfSh15bcyT6ZICKYSANa/tWAj/kzJa3SO3Uf6FAlIQAISuGMCBMSxTZ4gUQpBY2z8ltuxuz86M5zpA1ySrqPK7166KJycD1GmWAzfjb6t4AM2wmVMSBCnfJmaO6bTdglIQAIS2BCBqce9Q2HnU9Sngtsl+whGBC7KVGCasiHpmBrT2oeu2hcPQUZi9Rxll9nMdU/nBiR/YsE9HZO5JybD2ETbJSABCUjgPgjsw8xa4CPIcRLM5dRH6DX9S9pqAbcPw1pO3UvWWToWHmv8L4YF5otW4Zb8xH4C/ZjMJX3oUiQgAQlI4E4JdGH3WGAnwOayi8rSILnmeOzkBJsHLa5JEE5dh/ldlCEKn2+fqgc2U8E0ujcjOa+5JAAuY0zm5m7GYQ2RgAQkIIE6gamTXpdN4XosGFy6nWBzTqAfs+9T6M2fdODjOU8W9jF/7OOBDOVNL8uPfuCaMyiNK8fnLLkvU3NLXdYlIAEJSGBjBHZhTy1IEtByGRtXm7tmG0kKQrCa0sspnMJ4nhbMjUdXmQSwDjJEaZlfs4d5/HXBLQZHbCJw53bDakp2xfh87hi/KX32SUACEpDARggQFNjIa8EsBV9MrQWP2py12wioBKH9iI1pPQJb+bl8H21lwCvto58g+LMopQwN80t9uT3Y3ZVKb1zHp9LmORvxo5yT6rx3FAlIQAISuFMCnJxrgZK2/CTbR30sEGylHZsJWAT0X0QhQLXalubyKL+LguD/a5RWHbVxzO+/V7eJf/eFP/CaE8bUfKOtZf6cfvslIAEJSOBGBIZYt7bBl5v7WLJQm3vvbYdgQvB+GWGz1D+SkS18T6D2NKdreN89T3Ao3ycN6hwiAQlIQAJbITAW6PrCwC7q+yhLA+A54wkwfCSBLXkZos6X1QjUBOzWNZaMbdXZOo61b/09gTKR4963yNQXA4cWBY6RgAQkIIFtEuCUWgYyAlb+UUCyfIiLfWV8Of/c+m4Bqi7GYhdzsHtsbfyc6h+bt2b7N2FD+b2FaLqakFAlf7ClVWA7xmFoVeI4CUhAAhLYFoHa42E2+6kTYkoOeOUkPhYcTm2fWnuOHidd5h9OsIt5nHj3jXMZl+akea1zdzG3i3JtGWLBdF9g1SLc50/ZvPK+olORgAQkIIE7JNCHzeWmTp0TY4u0Br3aGrW2QyyakoyW9cfG9NGxi1Jbo9b2nCli/SHKmG8ExCkbCa7ow5faWqkN+7oo1xTu6zdR+gWL4g9zxnwZFuhyqAQkIAEJbIgAwarc3Nnwp4JcMp8xU8Gh1NtSJzCuJV0o4qTeYiOP6Esh+GFPaTf6aK/9SmGuo4/KoTI/14eeLp+0weup7wPgy7BBmzVJAhKQgAQaCLzGmDLI7RvmMaSWQJS6ltYJimtLHwoJZJ+ijNkDh1ri00V7jVHSg721edH8XfvUmrkO1tmiPIVRY8xS+7BFw7VJAhKQgASmCYwFKYJ7ixxi0FyAWNpPUL2UdKEY32p2c7rvRxamvTYH32if+tU/GDOfJATfanpY+5ZfFozlPxM4td674bPZNkhAAhKQwOYJfAgLCUD5Zk+d9jlpOSG2BpF83NiJfM6eJf1jAe4llBC0S6GNvjF/YEZ/Czd0DVFICEruW0kExviM+Y8vigQkIAEJ3BmBWiA/hA+1QFi6to+GsaBwTjvrE1T4ffqWoFra1VIfC3L4NCZDdNBfJk25r/SRxBDM+b7AlP199JecmD/1VCG6Ly7ce+5BadtUnfulSEACEpDAnRGonW6nAmFyr4+LqaCwVh/BiLXWlKkvuRHM5hKgLsYMUQj2rX4S3OFKmZvDmD7KraSWGLbYPMftVv64rgQkIAEJjBD4FO3lBk9iMCcEy3LepeoERU7H5wQZTuQtNhOs8X/qBJ/YdHGxJBFYwgdb0X8LgfeYrbxfSBLK9w317hbGuqYEJCABCZxGgE2boFdu+MOMOoJxbV6pZ+06wYkAzccEPGovH7djV2pnDIH0EOUUOwhqLYnHpZIA+PKRwrWliwXH7m1KwkiQSqbMaUmcru2P60lAAhKQwAgBTnSnbOa1eaWeR6mTDJBMEJBTgsErScZYsFzL932skQLvyC1cvXkIjaX9MMil7E915ioSkIAEJHAnBF7CznJDbznR1eaVeqx/znYpk5Z7sfZbbVd5T+yjjSTotdKX+3SLJxdr+68+CUhAAu+GACe8MjDRNnf6rAWKUo/1z9mewoQnDtcS7nvtPdFqN0nC3HvnWr64jgQkIAEJTBDooo+TZrnBtyQBw8jcUte91vvw7zkKyc6hwuiafmHDtYQAfo6/zP1wLWNdRwISkIAETifAZl0LZi1JAMGCILmPwsZPMsE1J8GaziVtKZB0xzWoL5lfjk22terZxXq5wOklSi1hKte6RL20pzBv1Sq+nuvnNZ9crOq8yiQgAQm8JwJDOFsLWi1JQMlpTFdNf0vbPhbgm/ldFK5b5tTGkJQgJC34VRtTtrFe9/20H/w7RO0cW8p1Wuun3I+K+U1NayQBMIe3IgEJSEACGybASb4WiJYGnXNPjjUbUltr4J7SQeA+jPham4c/Y6fZfqGumv6lbUvvxzlvuTWSAFijR5GABCQggQ0T2IVttYC0JOhcMgGo2XatNvyCzy+K+8cJlyB3LTtYZ8n9OPftRvCe8u/luEB/tGuMw1gSda59zpeABCQggZUIvIae2iZOEGg5yREQavMfse2Wyc41kwCSHNar3UPeL+kxfzcyJs3bRz9jFAlIQAIS2CCBqc2egDeXBEzNrwUQ2+qBtYXLNZMA3qq7KGN2YQsBfi4pot+nARv8wdckCUhAAhCYCuJs4MMMpqn5YwHE9vHgOsWGoHxN4d7PBfkpe1MfyUJ3TcNdSwISkIAE2gjMBfGXUJMe/dY0zs1vCRKPOqYvgPFUZYhCMOckvdTvaycB2HuKnaVfJBJPBQurEpCABCSwAQJzQZwgQDAYE+Zz0is3/vdcJ+jNCdwIjPxXxvBrOXFfOwnAh6n/ajndY8Ydokzd89fo7xioSEACEpDAdgjMJQEEp7nPdAlOUwFga30vYe9zFOxuCb7J/n2jn92C28tY/g5Ci+5hgd61hpIAkgieew9b3kdr2aweCUhAAhJoJDCXBLD5c4pj3JgQTM8NEteaz8k2lz4qU/YTvHLfp8biA/1zQmCF6VKfhznFF+onYVqSLI35RTKB74oEJCABCWyEQEsSwOY9lQSscVIcCxxrtw8V7l20kRzUAh1BPQUuGMzZMxXkmF9bY05n6u8rtl+jCbvh0Grn1LiX0DP1XrqGP64hAQlIQAJHAucmAcw/RJna+K/RR5Dqj+UpXseC1nD0u3zBj7FEAPv3Ueb8IBkak65h/pR+koepBGNs3bXasX+M6ZTdZR9+cH8UCUhAAhLYAIGWU97Uk4A+fCg3+mvXCU7l6XLs6cQ+xvIZfE1aWEz5Vn7UkK/R8gW7Kd23TgLwhSQE1lN2tvRxD7raDbBNAhKQgASuT2BuY2fTnhKCZx+FQHeI0hII1h7zGusS3P+5YX1sZFwXpZQ+Gk71YSiVZXVOv6fqTaym9E8svWpXF9p2Uc69f34ssOptUZkEJCCB0wmwIU9t6mz6rUKwGzuFT61xiz7sJBn4WeYcCc2pwRpO5ROJnNsQFZKVU31l7hYEH89N+HiyMfdbJ1vwVRskIAEJPDyBITycCkxLkgBgoY9Nfkrn1voI/Psz7cbnsScMcEEIoCRKBFHWY90xFiQpsB+iTCUX0X0Twa5zkhp8729iuYtKQAISkMCfCAxxNRW0CURLhIBFgBsLbvfYDoMpRrlPjOWjiSWBm7FLxi+5H5cc24Xy5ygE9FPuK+8TdCgSkIAEJHAjAh9i3akAN5xg17lfhDsloGxtDgEufdxwjwF+yW3nPfQS5ZRkgKSpW7KYY08mAGcSVJ7g8P5MPzPpqRN9igQk8M4IEKDYBMaC6HACD+aM6XuP7QRHNl2SAj4L53sI+XcRTkC8ySldWMWTgan3U+3+w+XRE6Vb3bA+Ft5FqXEv23ifPt3KUNf9M4EfCUMCVyTA5ssmMfbD/2X0/XqhPX2MJ+gp8wS+jSFfZ8O45slMkre4oPzx+Prnnu1e8Z7qo/zD8bWbMRUGPEn49yhcK+cR6GL676IMM2p4r/GzTdKW5F/j4rcz8+yWgAQejAAbcHkqSHUSBDb1JTJM6Btbx/bxe9Avgb+xsV3Yw/uBxGbqHh+i38fR5928Fs7pHnw4LgX31MY+oEhAAu+QwBA+j23QnBLShtGK5nlC39g6tn9+D15bgW9wHB93pOSxb3w/EJD4uGRp0rlB969mEqx4nyz5+Ul88znD1Sx2IQlIYHMECPJjJzXal35mu485SzalfCzr7aKQSPRRhjN0oRdb+KIihZPOObad6tPSeTDootyrEJSeMuOXJIXp/XbP/l/jvvEz+ynK0vfWIeaUPwPoUiQggXdMgJPB1IbCxsyj2nSCmELVR+fSjYnxBOlS/+5EXejD5l9UDD3VvlN8OmVOHjwr5t9l0yn3kTkGp89vN0x4b5/y3irn7D9Xb4sEJPBeCbRs1Jzw5pKBcqNpqb+E3vSNeV6nEpIWfWnMIXThFzZTqC+Zf82xJEGPKtyDU1juj/ftUbks8Ws4keEYd/QpEpCABP5EYIirsQ2jbGdzTr/qxumdQr0ct/U6yUf+9KGLOsH4mnaTWD2ywPecpI5TL/epe2RIE74N0bfm+5F7oUhAAhL4jACPGQ9R1txwtqxr9xmB7xsIONeym+9aPLqcmwSke7EPUDzNeS8yhKNrvw/9eOW9vHv0UwInEGCzZqNde+PZqr5D+EoQ7jJWw4X8hyuFBINX1k5cuOZpQBflEWWtJABe6anAIwezIfxM7421Xh/5o6ZH/JnRJwncjMC1H4W3bHK7oEFpGXvKmEPoJjjzmPSU+bU56BoLVE/ZOgR/guQjC/6tff+4Z3z81D0QuCF8qb2XzmnbPxAfXZGABK5AgADFaeucjWfNuZzU1w4ga9pX04W9ZWCnji9p/HvbnEmyaqzObSPZ4iOCknc03Y0MYekhCq/Jj3MTUvTdM5O7uXkaKoFHI/AhHDp3Azp3Y3+E+QT5lMCUSdXzo71pGvwZYkzJYc37zBMVkoGuwZatDIEJDHhN0sXFOZyYy8+wIgEJSOAkApwedlHW3KDR1R+tIQCurfue9JFgvccT2rWSS/hu/WMCWKT3LEGbZJGfD2w/5738FPMVCUhAAmcTuESgJrE4RDlnk3uEuWz67+kb7vmbke+bnHPKXXL/CagE1y2dirHlEv4POWSvJSABCZxL4FKb1ZJN/JHHkgy9x7+P34Xfr1Hye7uPOu2Xes8RdHdRbvm9gUv59hJ+KRKQgARWJ/BFaGRzvkYgZpO+5gnxVJ+wk5Plz6J0UdjY+2N5ild8oMCt5bTHGOYlIUgRIGmnoOcRnxjAjaCc7kMrr1PvWz7vU6yb7mFcXlwuFfx5nygSkIAELkrgJbSvsfFO6WAN5BprTdlxSh/BqywEmSW6CEiHiTnoJyFbQ9DDemvpO8cmbHiOspTXErZzY2F7qYQA/0jk5mxY2g+vLdy/c+69cyUggTsh8LTSRrYLPQT5MtixCXPSLduXboyPPH6NTb8/Mh7idWtCQON9xvuD9wOlfD+kdsYMx1KOOfc9wBokBPxnU+cEWeZeKrH5ELoVCUhAAlcjwIa2i3LOBsv8tKl2cf0c5dRNknls1t+cadM5/lx7LoHvVCGoYS/3YEy66OC7CYyB7SFK8hHOtFFeo1zq1Byqm6SLUde49zCAB1xaAy/jTn1fJ95jr+e8B5rAOkgCEpDAGIE+OvLAMLZRjbWzMZYbaRdtJAOtevP5JBSt88Zsuqd2+C+VXUzARwJ3TXj6ck7AYi6B6Wc15Rdq47sWt7pv+6O/cCt95r15ycSk/Nm5EN7V1fJzqkhAAg9AgB9mNvy5DbiPMUMUNsxyLCfImrR8GbDcBA8V/eV6j1LH1yWb6e7IhiBdznuKtrXZEfxYk0fol5QulF8y0C59v8D39Qo2lffwkozX0s3PK/dqWEuheiQggdsT4AebjW9qs0w/9F2MS8EojWduX3GDTa4cm6/BZkICMTduyq577iNJapHEEF5dNoHrfZRLM2Ddl2LtzIyzL1vef5f28dr6STK4f0uFnxWeVpRPLJbqWTo+Bf/EaSzxX6rX8RKQwEYIPIcdbPZjmyGbFhsQ0kVJgSmNp576j8O+e2Hz2EcZ0/ue2/scVOU6Z/x07IcxG/AtuJHs8cj8EjKE0sON/LoFS9bk54LkivsJ1xTceeXpC+28B6a40MfPJmOZt7b0obC2L7Dupd4La/ugPglIoIEAwYXNZGxDZCPgi1RJumI8/WxENSGATW1kY2s+cju8SJBKKe8DgTcF/tpmfCojdPEkojsawD1q0ZXuc5pX2n9OHR4vUXyvtN2L2v16DX4E53PvDz/LNf15G/eJ+3Xub1yEiu/sJYmpFfoUCUjgCgT6WGNqA95HP2OScE2QShsDc8dOB0P0Teme23AerZ9gSlLVHQub7ppBnntFQCi57aKNpKIU2suxU3XG96WSleokA89R8GHKBvvG+fBzyXuKoNoq/OwezmDO/UqF9x7r523pOt8zWu8hc16idFEUCUjgggQ4HU4Fo130d9n65Xh+0PsR+4ZoP2eTad0w3us42MKeIJrfQ6456Y9J61OAkiv3eizpG1traXsfE3iPsVa5vvV5Jtx72BFAU1JAYkCh/hpl6ud9a4x3YW8tiY3m9eRH66lSkwTujkAXFrNhjAWNb4/9/x6vXPMDyfghSpKPccHGzWspQzT8LkpXdlifJADrL6M8V0b9a7TBu4vChp82ya/j+pdR3qKMSRcdh7HOhva3GMP9/48o2HhJ6UP5z6MQwLi+lOAH7N6i/HFikZ9GX2L9IbuemGLXmQQ+xnzeA4oEJHBBAn3o/hRl7BRA0HjK1u/imgw9H88Jg/aaDNGIjjH9tv+QDQG+r/CCYxeFE13OjHuRglNcTsoYa+7/c5Qumz32nuAkyZr52MlFV+jsQwdcxmwa86vWjv2lr6eYiP/YNUTBNpjso6C/tu5W2/jZXYPrJfyDrSIBCVyBAD9sU5sXm1uf2dHFNRtfPodNkPaakESg4xIbxSPphFO5IcO4bMNn+C+RkhM6+4oCEoqp90LSw/3k44HWBKSy1OKmLmbg9yFK6c9cfXdFW/tYi3u5ZnLAPWm5L3McUv9r6EOws3XONcfx/ryY/OhimlUsgfskwEb+2yicMsfky+hgU3s7DkhzCATdse2reP23KB+P9fzlQ1R+E2Wo9NnUTuD/iqG/ax/+3Ug27yRfxsWvs3q65H7uo3CfWuXbGPh1NphrNu8/RHlrVbJwHHYSwPrGebwn+ZhkCwJb7O+i/ORo0N/E6zBhHEx/fhzzMjFuSRc84PIUJSUDU/Ox4dvjAO5tLrxnkqRx/Q+H/KmG/38bZYgChykxTk/RsU8CFyDQhc5dlKlsn37G5TJEhY0/zWNT6H845E+1Lq7YyL7Jxk+tZ9+fuR5GmM41J4Zjmz2bcX7/1mCOrdzntf/64FJbuzk4N+7fxfpTvJP9JN9T45b0cW/2M/p4rxCw1xJ0cViY8zf50a+1sHokIIFlBPhhndsg6C9/SKnnP+BsNPxKXC3bp22IUgs8tOWbz1PUTRg+PynCEN5jgT26vmOcNtWOhkLgzH1KYy7xyr3DznOSAeaiY+n7gPcfXyqsvQej+btklv5UqF9DsIf7Nsc7/T7+vmHsnK4l/XB+iZL/HE5xwZ/EEOY8TcS/U+3upxazTwISuDwBfgg/RZnaOA7RT2afb7Bcc2KhL81lMxjbTPro22Vj2TTKDfvUjWTK9nvrg1OSLi7ye/OU9aXLIS5yH0umbNQtDAgG3M/uqHjuPTGlE13ca94zSd9R7Wcv9BNIDlGmdJ7St8SHfaxP4T2MPRTsTwGv5BpdVeH9zzz8h8Mpdt9iDrYmBvnrEoZL7e6rBG2UgASuTmCIFQ9Rpn6I2SReonSFdX3U2fDSXMaMbZi0P0dJa6UNl1PQ1Npb62Nj7KKsvUHCBkYEbnjnfsM1l6HoZyxBHOmi7KPQhh7a+yi7Y1uuN/kSXd8JQaxc+xz+6MIWCoEVP7g+RDlH763nwg0/eL21Lfe4fmBTJCCBLREYwpiWjfk1xvWF4QQu5tOHDgLJlDxF5y7KPW5e3dExAkDN/jUDaNKPThhTYFxblzb60vovx/Hx8p3U7M3vE9eHKGO6bZfNGu8B3p+KBCSwUQJD2NUSCBjDI0+CUilzCUAaz9znKHPrfYoxBDBe19iETtWxOxr+FK8p0Oa6aB9ubCP2YEMuMC59Tr4wbsyfck6qM5cy1m+7bMbeA/sfvjWtSUACWyQwhFH8sI79IKd2AiGnze5MJ/qYPxZUDtFHspGEsQQ1xtM3Z+Na/SkRGdP3Grbsr2hPzQ645PIhKrVkhY8G+PgFm3M96X4ORTtjdlG6KDWdh2jnfYDeml22yYX3QPqoKi4VCUhg6wT6MLAMEmObOeMIKufIFzF5iEKwLdchyOSJQFqniwtOsQSg2rxSzyPX4ZdzIaC3+ruLsWk+QT7Ng3t/VFoG/33Wx5Ahm9e6ruPa79G9s+L9o0hAAndGoAt7CRAtAYWAwZe+8mB0irtsFrU1sWFKP+v2UThtEKDufdNcYj9s8Blu3IfWufnJDH4pkeKVehcF5kkf6zxHyWXI+lvXdVz7PbpnVrwn++L9YlUCErgzAgQDgkVrcNnF2H4FH4fQwSZSboLo7xr0YwMB6zVKq+3lWo9cTwzz4I+/JAApGUj+E/xJznLJk4NH5qRvn/8MTjHZx5ukL94rViUggQcgwA/2LsrUBpD6DjGOINGd6TfzX6IQhPJ1CexLPn7InxIwl42KQFfqbfHtEcbgPx+vcJ/m/BliTBI4wm9ujv3vhxHvJZLt7s9vE68kIIFHJUAQ4AeeANqy0RMwap/lL+UzxAQ2m3xNAvjuqB+7lgpzhiil3ha/tjIGvk9RLmXPhyNU1nivCdOl2N6b3sPxZ4Wngn2UU37mjm+n819+dL4KNUhAAmcQIDj8YxSCQzej59vo/yoKAet/z4yd6mad30QZopQb0NfR9jEKAf0PUVizVboY+LsoQ+uEjYz78mgH96DksYaJ6Ecv+pX3QYCfI352+Bki6L9FSW3vg4BeSkACiwh8iNEvUdgw5k426eTOnHNkiMkE+7H1PkXfLgp/ca91rS7GkqSM6bRdNo/yHuDnkJ8fTvQkeK0/IzH09uITgNvfAy2QQI0AG8k/RmFT6WoDsra3uP4qCkGXE8cpwnrpqcDc/K9jwFsUkgNeKX88vsbLn+QQV13e4LUEHoAAP2v/FeVjFH4WFAlIQAIXI9CF5ucoBNy5kxMnEhIBvjPAvKXyRUzgNEPwnlvLfhm9l/cAP3tDFH4+HkZ8AvAwt1JH3gmBLvx8isLTAU7tc8IJhYTgY5SlTweGmPP3UboorPVQm1/4o0hgjsDHGEBCzOvDiQnAw91SHXpHBLrwlWTgH6L0jX6TEHyMso/y31HeGuelYX1cdFF+EuWnUUgKaFMksAUCH8OIb6Pw3kZ4IsZ7/ufH+l/FK8nsXEL7FmN+HeXjcd5DvpgAPORt1al3SIBAnJIBXlvlLQayQfKIk1c+y+d1qbA+myrlr6P8LEp3LEt1OV4CLQS+jUFfRfk/UXjPfmyZlI3hvcqTtKcoXdb+r3H924W67nK4CcBd3jaNlsAsgT5GcOohEHO9VN5iAoUnBemaUxWb7lJho+2i/F2UvzlefxGvtN9C8IH1lfsjomT37QAABcZJREFU8BYmfxXlv46va3nwFIpIBv4zypdrKd26HhOArd8h7ZPAOgT6UHNOQpBb8TEqBFGeGrwdy6nJQUoEeCVBSI9o4/I76Y4l1Ze8fh2DsZPX/4mSJzOsN0T5TZQuirJdAm9h2ldRfh+Fe6msRMAEYCWQqpHAnRHow961EoLc9Y9ReYtyiJIC8NIvH+b6atddNFJq8rHWONP2Ifo5/fVRuFZuT4DEjaDPiZxX5QIETAAuAFWVErhDAgQ+yk+i8LEB11+s6Acb+tfHwhezPkbhVE7blgSfEwu+y5C+6Dhl41t08t2JJDwZwd8kH7Pr8jJx7qLjUuzLNbdah9lXUQz6V7pDJgBXAu0yErhDAl3YTIDi0TyBkGva1pa3UEj5OkpKDlhj7ScHa9t9SX2w/mWUsb/nQLD89yivUeD2RRTY3Zu8hcEfoxj0b3DnTABuAN0lJXDHBAg0BCfK3x5fu3ilXEIIdAS4tyh8rMArZYtPD8Ks1aULjSQB/1Jo/hj1n2dtL3H9XIzZYvUtjOJ+/leUj8frLdr5LmwyAXgXt1knJXAVAiQFJAgEpvRlvi6uKZeSlCDwyqN3hABD/Z6SBD52QfooP4nSHa+/axyRt2j/GAXmTyNjLtnM+hR4Y0OXLUZ7+liEJxOMSfclG+blLQmYANySvmtL4P0Q+BCuEiRIDpBr/zrgW6xJQQhE+eNy2ilJCFx5PetqvuxiJD4mSf5TTwEeHrRvXT6GgW9R4EKSxTUMlTsnYAJw5zdQ8yXwQAT6oy8ERb6Al/9KYB5AH8jlzbhCQP82Ct+78MS+mdtyWUNMAC7LV+0SkMD6BPpMZXqiQFN6jM51PmZ9C+5L48ejuW/xmh7L8zcRkBT4j1Vf3hMBE4D3dLf1VQLvk0D+9KALBDyCR8o/OnQvTxk4qRO4k1BPf/ueR/TUyzHZcC8l8D0BEwDfCRKQgAQ+J9BFEwX5Igq/Cpkk/9sAXTRSEIIygXeJ5ME7zUtBPNXf4oKiSEACEpCABCQgAQlIQAISkIAEJCABCUhAAhKQgAQkIAEJSEACEpCABCQgAQlIQAISkIAEJCABCUhAAhKQgAQkIAEJSEACEpCABCQgAQlIQAISkIAEJCABCUhAAhKQgAQkIAEJSEACEpCABCQgAQlIQAISkIAEJCABCUhAAhKQgAQkIAEJSEACEpCABCQgAQlIQAISkIAEJCABCUhAAhKQgAQkIAEJSEACEpCABCQgAQlIQAISkIAEJCABCUhAAhKQgAQkIAEJSEACEpCABCQgAQlIQAISkIAEJCABCUhAAhKQgAQkIAEJSEACEpCABCQgAQlIQAISkIAEJCABCUhAAhKQgAQkIAEJSEACEpCABCQgAQlIQAISkIAEJCABCUhAAhKQgAQkIAEJSEACEpCABCQgAQlIQAISkIAEJCABCUhAAhKQgAQkIAEJSEACEpCABCQgAQlIQAISkIAEJCABCUhAAhKQgAQkIAEJSEACEpCABCQgAQlIQAISkIAEJCABCUhAAhKQgAQkIAEJSEACEpCABCQgAQlIQAISkIAEJCABCUhAAhKQgAQkIAEJSEACEpCABCQgAQlIQAISkIAEJCABCUhAAhKQgAQkIAEJSEACEpCABCQgAQlIQAISkIAEJCABCUhAAhKQgAQkIAEJSEACEpCABCQgAQlIQAISkIAEJCABCUhAAhKQgAQkIAEJSEACEpCABCQgAQlIQAISkIAEJCABCUhAAhKQgAQkIAEJSEACEpCABCQgAQlIQAISkIAEJCABCUhAAhKQgAQkIAEJSEACEpCABCQgAQlIQAISkIAEJCABCUhAAhKQgAQkIAEJSEACEpCABCQgAQlIQAISkIAEJCABCUhAAhKQgAQkIAEJSEACEpCABCQgAQlIQAISkIAEJCABCUhAAhKQgAQkIAEJSEACEpCABCQgAQlIQAISkIAEJCABCUhAAhKQgARuROD/Bz0ljHRCaikOAAAAAElFTkSuQmCC;" vertex="1" parent="jZVaUwOg5UY3L9NAnvdq-71">
          <mxGeometry x="770" y="264.62" width="82" height="82" as="geometry" />
        </mxCell>
        <mxCell id="rhXxKZ1V0jwPfmqhfIQ--12" style="edgeStyle=orthogonalEdgeStyle;rounded=0;orthogonalLoop=1;jettySize=auto;html=1;startArrow=classic;startFill=1;" edge="1" parent="jZVaUwOg5UY3L9NAnvdq-71" source="rhXxKZ1V0jwPfmqhfIQ--10" target="rhXxKZ1V0jwPfmqhfIQ--9">
          <mxGeometry relative="1" as="geometry" />
        </mxCell>
        <mxCell id="rhXxKZ1V0jwPfmqhfIQ--10" value="Gunicorn WSGI" style="shape=image;verticalLabelPosition=bottom;labelBackgroundColor=none;verticalAlign=top;aspect=fixed;imageAspect=0;image=https://static-00.iconduck.com/assets.00/gunicorn-icon-2048x1245-14wjcllu.png;" vertex="1" parent="jZVaUwOg5UY3L9NAnvdq-71">
          <mxGeometry x="590.06" y="268" width="123.87" height="75.25" as="geometry" />
        </mxCell>
        <mxCell id="rhXxKZ1V0jwPfmqhfIQ--13" value="Scikit-Learn&#xa; ML Model" style="shape=image;verticalLabelPosition=bottom;labelBackgroundColor=none;verticalAlign=top;aspect=fixed;imageAspect=0;image=data:image/png,iVBORw0KGgoAAAANSUhEUgAAAgAAAAIACAYAAAD0eNT6AAAABHNCSVQICAgIfAhkiAAAIABJREFUeF7sXQd0VUUTHiAJJQmhd0LovUjvTemCgPSO0lWaIk1UflGkivQqHaSKgqLSu9KU3iG00GsIgSTAv/MgGMgr973ZW9/MOXuAe3dnZ75d3s7dnZ0BYGIEGAFGgBFgBBgBRoARYAQYAUaAEWAEGAFGgBFgBBgBRoARYAQYAUaAEWAEGAFGgBFgBBgBRoARYAQYAUaAEWAEGAFGgBFgBBgBRoARYAQYAUaAEWAEGAFGgBFgBBgBRoARYAQYAUaAEWAEGAGjIJDAKIKwHKoigOOcUZTsooSIklWUtKKkfq34iH+nFAXJTxT/F3+PEH9Gvfj7HfFnjCi3XivXxb8vihL6olwRfz4ThcnYCPAYGXt8WDprI6DrGqxr59YeV120Syh6zSlKUVEKi1JElPyihIiSWBQt6ZHo7LwoR0U5JMpBUQ6IclaUp1oKwn05RYANAKfw8EtGQFUEdF2Dde1cVVi9g3kqoWb5F6WC+LOEKLFf7UZFAHcT9omy40XZJf68bVRhvUAuNgC8YJBZRcMioOsarGvnhh0S4wqWTIhWVZQ6olQXBb/uzT6GuAAdE2WjKL+JskWUh6IwaYMAGwDa4My9MAL2END191vXzu2hwc/iIZBNPGkoCi76VURJEq+GtR7g0QEaAWtFWSXKeWupZzht2AAw3JCwQF6EgK5rsK6de9Egu6tqZtGgiShNRcEtfm8eJ/QhWCbKPFHQf4BJLgJsAMjFk7kxAu4goOtvu66du4OSF9TF7f1morwnCp7no0Mf038IoOMg+g38IMpSUfiYQM7sYANADo7MhRHwBAFd12BdO/cELQu2KSB0aidKZ1HQqY/JNQL3RZUfRZkmyn7X1bmGEwTYAHACDr9iBFRGQNc1WNfOVQbWyOwTCeHeFaWvKGWMLKgJZPtbyDhWlBWiPDGBvEYTkQ0Ao40Iy+NNCOi6BuvauTeN8gtdA8SfrUT5WJQ8Xqi/miqHCuZTRcFdgbtqdmQx3mwAWGxAWR1TIaDrGqxr56YaJpqwQaJ5H1F6ihIbaY/GkVs7QgAjFY4X5TtR7jmqxM9fIsAGAE8GRkA/BHRdg3XtXD/MNesZg/J0EmWQKOk065U7QgQwuNAEUdgQcD4f2ABwjg+/ZQTUREDXNVjXztVEVWfeGEe/hygDReGFX9/BuCG6Hy7KJFFi8xnoK5GxemcDwFjjwdJ4FwK6rsG6dm7RcX5L6DVOlIIW1c+sap0WguNODMYUYPoPATYAeDYwAvohoOsarGvn+mGuSs95BdcxotRThTszlYUAhhzuLQomKGLijI08BxgBPRHQdQ3mYDP0ocfQvLjFjAsKL/50PNXmgDkUMHYAjllStTtj/owAI8AIGBUBXa0Po4LihlxVRN3pohj+Sl+CBAkgU4aUEJI1LWQPTgshomRMnxLSpAqEtKkDIbX4M3lgUggKxICEAH5+PuCf7HkG4YiHjyEqKsb2/F74Q7gfHgk3b4XDzdvPy5VrdyD0wg04ZyvX4cq1u/DsmSl2lk8JlbqIstmmnHcSaaDCrt3yTtRYa0ZAIJApfWoqDrquwbp2TkVOx/bJRd8jRcHFw3AYBvgngZLFckDRgtmgcP6stj8L5ssCSZOgb6L69DDyMRw5fgkOHLkAh45dgINHL8Def8/CgwjM82M4wgVwpij9RPHGa4NsABhuSrJAZkGADQCzjJQ8OTFO/3xRsstjSeOUPm0QVKtYEMqXygMVSuexLfiJEhnrdCcm5onNINix+wTs3HMSNm0/AtdvYkRfw9B5IUkbUbYbRiJtBGEDQBucuRcLIsAGgAUH1YFKPuL5EFEGi4KhfHUjXNzLlsgNdd4sCrWrF4PiRUIAt/jNRE+fPoP9B8/B2g3/2sruf87AkyeY70dXwlDC6BswVJTnZx66iqNJ52wAaAIzd2JFBNgAsOKoxtcpRDxaJEq5+K+0eZIwYQKoVDYfNG9YDt59uwykS4OnENahq9fvwoo1u2HJql22XQI0EHQkzC+AIZu9If0wCWj2AdBxlnLXuiPABoDuQ6C6ALVED7j465KpL3+ezNCpdTVo2biCcNpLobqyRujg8pXbsPinnTBzwSY4cTpML5EwpHBrUdbqJYBG/bIBoBHQ3I31EGADwHpjGqsR7qlj4Jj/iaLpgXqSxL7QtEFZ6Ny2uu2r31sJbxJs3XUcZizYCCtW/w2PHkdrDQWeSeBxwFeikBZKrQV3oz+SXrwD4AbSXNVyCLABYLkhtSmE++vzRHlHS/VwW79Hx5rQ470a4mqetbb4qTiiw+CkH/6EyaLg9UONabXor60oVrwlwAaAxpOJu7MOAmwAWGcsYzXJKv7yqyiFtVItV/YM0O+Dt6Fd88qAX/9MjhGIfBQFc5dshVETV8PZ89cdV5T/5rBgiYGeLshnrStHNgB0hZ87NzMCbACYefTiy46LPi7+aASoTsFZ0sDg3g3hvVZVwcdH14sFqusqu4Po6CfCT2AHDB21QktD4KrQo74oe2XroyM/NgB0BJ+7NjcCbACYe/ziSl9X/GOJKAFqq4T39j//5F2bcx9G3GPyHIHHUdEwfd5G+GrMSrhxS5O4AhFC2pai4LGAFYgNACuMIuugCwJsAOgCu/ROMQDMbFFUXY0T+/lCry61YXCfRrawu0zyELh77yF8NXYlTJj5O+DugMqEHbwvylyV+9GCPRsAWqDMfVgSATYAzD+sGM53iiiqevo3qF0CxgxtA3jez6QeAnhtsM+Q+bbgQioTLpwfijJZ5X7UZs8GgNoIM3/LIsAGgLmHtocQf6IoqoXRw+3+kV+0gnbNKpsbKZNJv/qP/dCt30wIu4rX+VWlLwR3vCpqVmIDwKwjx3LrjoDZDQBVv3p1Hx3nAgwQryeJosrij6F53xdn/Md3juXF3/k4qPK2fq3icHDLSC2wxzgBn6uiBDNlBBgBRkBFBFRZ/FSUVxbr3oLRd7KYvc4nQ7oUMGdCN6hVrejrr/jfOiCw5s/98F6vaWo7CfYXqmGGSLMR7wCYbcRYXsMgYPYdAG80ADqI2fODKKroXqtaEbH4dwc0ApiMgwAGEnqv11T4dd0/agr1sWA+Vs0OVOCtqwFA/QGlRiKk9q/CeDBLDREwwPxRZR1SCqG3HQFgbPdZokgHHT38p4x6H35fMpAXf6WzT8N6GGVx9YJ+MPZ/bcHXV7WYC6OESu01VIu7YgQYAUbAYwS8yQCoI1CaI4p0nbNmTg1bf/kCurV/y+OB4IbqI4B+GX261YWNK4eolVgJ5xYamG+rrw33wAgwAowADQHpiyFNHNVaFxKcF4si/Z5/5XL5Yc+fX0Pp4jlVE54Zy0WgYpm8cGDzCKhWsaBcxs+54fYCBpQqowZz5skIMAKMgCwEvMEAyCzAwpSuQbJAi+WDX/wbVgwGvOrHZC4EMNnS7z8OgA4tqqgheDLB9CdRsqnBnHkyAowAIyADAasbAIECpDWiZJEBViyPhAkT2O7245k/x/CXiay2vDAM8+zx3WDop00AjwckU0bBD/NKsHUoGVhmxwgwAnIQsLIBgL/oc0QpJgeq51wwW9+SGb1E9j7MCcNkBQQwL8Pcid3VyMuAZwwLRLHy/zMrTAHWgRHwSgSs/MOE97IbyxxV/2SJYfXCftCkPh/vysTVCLzaNq0EP8/7BJIm8ZMtDjoEDpbNlPkxAowAI0BFwKoGwJsCmGFUcOK2D0qeDP5cNgjeqowZg5msiEDt6kXFNc4BaiRq+lLghdkmmRgBRoARMAwCVjQAggW6P4oi7bJ3mlSB4urYZ1C+VB7DDBwLog4CeKvjj6UDIUUQ+vFJI/x/Nl+U7NI4MiNGgBFgBIgIWM0AQH3miZKGiMvL5vjlv1Z4ixcvwr/dsjA1Op+yJXLbAjoFBkhN2ZxK6I3XA32Nrj/LxwgwAt6BgNUMADxrlXavK1lSceYvoseVLJbDO2YDa/kSgTLFcwnDrz+g34dEKiV4fSaRH7NiBBgBRsBjBKxkAJQWKAzxGInXGqK3/xrh8FepbD5ZLJmPyRCoUDqv7cYHXheUSGikVpTIj1kxAowAI+ARAlYxAAKE9njdSsr2Kt7znz/5A7UixXk0UNxIHwTq1XgDpo/pLDNOAPqmoD8AxwfQZ0i5V0aAEXiBgFUMgOFCn9yyRvXbIS35qp8sMC3Ap33zyjDkY6k3SkMELGZMHWyB0WQVGAFGIBYBKxgAeCm/u6wh7dSmGgf5kQWmhfh82e9daNesskyNOgtmeF2ViRFgBBgBXRCQHv9UYy3QQ2u/KAVk9IvJYf4UV8A4vK8MNK3H43FUNFR95yv4a98pWcqdFIyKivJIFkMP+DzzoM3LJtR86pS+uS0joDcCmdKnpoqg6xps9h2AgQJ9KYs/pvRdMqMnL/7U6Wzh9on9fGHlnL4yUwljYAlpjqsWhp5VYwQYARUQMLMBgGf+aACQCX/Yl8/qA5ghjokRcIZAxvQpYOGUD2Uaiv1Ef/md9cnvGAFGgBFQAwEzGwCjBSBSAreP+7odlC6eUw18macFEcCjomEDm8nSDG+ujJXFjPkwAowAI6AUAbMaANWFgg2UKumsXp03i0HXduyL5QwjfhcfAcwGWb0SJvuTQrUFl3pSODETRoARYAQUImBGAwDvUY9TqJ/TaunSJLflg1chF7zTfvml+RHAWBHzJvaA1CkxBIUUwjktNeygFKmYCSPACFgWATMaAF3EaJBT8uGiP29SD0ifluOxWHZ2q6xY5oypYOroTrJ6ySUYdZPFjPkwAowAI+AKAbMZAEmEQoNcKaXk/futq0KtangDi4kR8ByBJvXLQNMGZT1n8GpLDBMsbUtBllDMhxFgBKyJgNkMAAz4k4U6FBnSpYCRn7emsuH2jIANgfHftIeUKfxloJFWMOkhgxHzYAQYAUbAFQJmMgDwF7a/K4WUvJ80oqOsH2wl3XEdiyOABuWoL6QZlJ8KuPg+qsXnDKvHCBgBATMZAB8KwNJTQWtQuwQ0roeJA5kYAXkIvNeqKlQpL+U6P4YW6yVPMubECDACjIB9BMxiAKB3dB/7Kih/imldR3/ZRnkDrskIKEQAnUq//7o9JEok5b9Ub9Et+wIoxJ6rMQKMgGcISPm18qxrt1p1ELXJX/99utaF3DkyuNUxV2YElCJQtGA2eL91NaXVndVLJV52dFaB3zECjAAjQEVA10QECoVHGY+IQtpfxTv/J//6DoKSJ1PYLVdjBNxH4Mat+5CnbB+4e++h+41fbXFO/BNzBcRQGbloz8mAXADErxkBRwhwMiBHyMh7jhHSSIs/ivJFvya8+MsbE+bkAAHMJ/Hph1KCVGYXXTRy0A0/ZgQYAUaAjIAZjgD6UrUMyZoWOsnZmqWKwu29AIGPOtUC3HGSQOS5L0EGZsEIMAIWRcDH4HrlE/JVpco45OPGgA6AetD1m/dh21/H4fCxi3D8dBicPHMF7tyNgLv3I+BBxPM08AH+SSBFcn/b1cS8uTJCvlyZoGC+rFC5XD6vz1BoRvxwPPt/1AA+/mIBdcphhCGMVnWAysio7SVsoRpVNZbLBAiEXbtlAinVE9HoPgCY8e9jivro9Hd0+2iZ6VtdirP337OwaOUOWLf5EBw5cQmePfPsmBU9ywvlywI1qhaBVo0rQImiuCtsfbICfpGPoiBX6d4QdvUOdcAmCQZ4BVYt8mxyvpCG+gPKBoBaw8p8lSBggPmr6xqsa+cuBghT/V4SBaOjeUzTRKz2Lhpk+wt/EAkz5m+EWYs2w1Gx6KtBBfNmsXmZd25bHfAr00pkRfxGT14D/b5cSB2mu4JBJlEiqYwctGcDwAEw/Nj6CLABYNwxbi5E+5EiHp7Dnv9nIiRJjCnX1SHczv9+xlqYMPMPuH3ngTqdvMYVM9D17FxblDqQIsjctxqsjN+9+w8h+I0P4X44ee1uL6bAPJUmFxsAKgHLbI2PgLcbAEZ2AnyPOn16dKyp2uKP2/qzF2+GvOX6wtBRKzRb/BGTW8LQ+GLkctF3H5i7ZKvHRwxUfCntvQE/vHLaqU11CkyxbTvKYMI8GAFGgBGIi4BRjwBw2z9MFI8995Im8RNf/xNUcaI7E3oNOnw0Bbb/fcIQs6lS2Xwwd2J3yB6czhDyuBLCm/C7cOkm5BS+ADExT1zB4uz9U/ESk2BdcVbJw3e8A+AhcNzM/AjwDoAxx/BdIZbHiz+qhCla8U62bFq1di+UqjnYMIs/6oe3DIpVGwBLf/5LtrrS+XkbfsFZ0sDbNd6g4og7dU2oTLg9I8AIMAJxETDqEUBT6jB1alONyuKV9rhljQ5djdqPsV3jMxrhOXOLLuNhwFeLDXkk4M34dW77pozp0kwGE+bBCDACjEAsAkY0ADBYfxXKEOXLnQkqlslLYfFKW9y+7dRnOqBXt5EJF9kRE36Bdh9Mhuho0pazVDW9Hb/a1YsC7gQQqYJoH0zkwc0ZAUaAEXiJgBENAIyjmogyRp2F4xXeoZdBuJA27jgWfli0WQY7TXgsWL4dmrz/nSGMAMYPIGHCBNChBcmmxXmDE1pKjGFNJiF3wggwAoZHwIgGQF0Kavhj26JReQqLl23xi7rLxzNg9R/7pfDTkskvv++Djr2m6nocwPj9N+LtmlWSMfy1ZTBhHowAI8AIIAJGMwAw+A/p3hR6xGfKkFLK6H46dBHM+XGLFF56MFkodgIGDiOFUiCJzfj9B1/OkPTwRuEQEp6iMTq2WCsCFBURbs8IMAIeI2A0A6Ci0CTQY21EQ1lf/8tX/234M38lOI2cuBp++m2PkqpS6zB+8eFs9g6G9icRRn2qTOLAjRkBRoAReIGA0QwA0hZnokQJoXG90uTBxXvq6PRnBcJt+Pd7T4PQizc0U4fxsw91s3fKyfBNqWOfOz9lBBgBRsA9BIxmAJDuS5UtkZuchhUXTAzyg2FcrUJ4bbFjT238ARg/x7MmR7Z0UDh/VscVlL0hHZEp64JrMQKMgDcgYCQDIEAAXoQCep03MXMqjWYv3mKoID80bf5rvXnHUVi4Yocsdg75MH4OobG9wCuBRCok2qcg8uDmjAAjwAjYrhYZhfDrfz1FmL3rviGlzMUvZYztf+PWfYoYdtsG+vtBvarZoVrZrFA0b1rIljk5pEie2Fb37v3HEHrpHhw4cRM2/XURfttyDsIjouzyoTxMnzYITuwaCxijXg1i/Fyjumn7EajeeJjris5r4E2Ztc6rKH6rayhgxVJyRUbAgAhISGet6xpMCrcreTww0InHhItb8SIhHrfHhpjVT/binzGtP3zWowy0bVgAkiWxD3faVEkBS6kiGaBT00Lw8FEMLF5zHEbN2AunL2A2WDl07cY9mDjrDxjcp5Echq9xYfxcw1qhdF4IDEgKmP6YQHjPVZYBQBCDmzICjICZEdDV+ngNuN/Fv2t5CiZ6/y+e9pGnzW0/yCElekrL6pdULPb9u5SCPh2Kg39Sz9IRR8c8he/m7IehE3bB4yg5kf3SpAqEc/vGQ4C/3NtkjJ/yqVe/zShY8ycptsRm0ZusWNe8A6B86LgmI/AKAmbfATCKDwAaIiT3/fKl8pCm5oz5G6Ut/rmCU8CuJS3gs+5lPF78URlfn4TwaaeSsH5OE0ifWs62/c3b4TBzwSYSVvYaM372ULH/jDpXBdeSohjJeLevKD9lBBgBQyNgFAMAXaNJ0XsqlKYZALMWbZYyUEXzpYWti5pBoTzk2O8v5Sn3Rkb4a3lLKJg7tRQZf1gk3wBg/JQPDXWuip7QYTaH8h65JiPACDAC8REwigFA8v7HM9UiBTzPk7L337Nw9MSl+Oi4+QS//NfObATpJH2tx+0+a4ZAWD2toZSdgEPHLsK/h8+7qZ3j6oyfY2zsvSn1Rk7w87PvD2KvvoNnhR0858eMACPACChCwBIGQImi2cHHx/P8QYtW0q/H4Zn/8glvq7L4x45kcMZA0Ud9SOznua6xvBZJvBLI+Cn6v/ayUtIkflCsUDb3GsWvTTKa47PjJ4wAI+BtCBjFACB9zRQtSPsxXbf5EHnc0eFP5ra/I4HwOODzD8khZWHdloOOunD7OePnNmRAnbOiR9L/Gfcl5haMACNgNQSMYgAUpABL2f6/fvM+HCFu/+NVP/T214qwr5zBQaTuDh69AOgQSCXGzzMEC+f3/MjqRY8FPOuZWzECjAAj8BwBoxgA2SkDQgmvuu2v4+SUuXjP39Orfp7o7eebCPp1KuVJ05dtnj59Bqg7lRg/zxCkGK0vegwRf/JNAM/g51aMACMgEDCCAYDu8ujV7BElTJgACubL4lFbbHRYOMRRCCP8YZAfranl23khIJln8QViZaXqzvh5PncoRuuL8cN7oem0nnfcHyPACFgHASMYACEUODOmTwnJkj4PqesJnxNnwjxp9rINhvd1FOGPxNhFY9xxqFOFtHECJ85ccdGL69eMn2uM7NVIlTIAsBAphNiemzMCjIAXI2B6AyAka1rS8J0kLoIY218vqk7sm6o76k3l4c34ZQ+mzV0BP80C1Gvicr+MACNgCASMYACQXPipP6I3b9Ec4TCxj16EQYcoRNUd+6by8Gb8qMargJ/sSUiZP9yWEWAEzI2AEQwA0jlmCPEr6kHEI9IIhmRJTmpPaRwiMgpSiJiQxtY14+f5CGQPJk197FheuEnP1eCWjAAjYFIEjGAAkOLbZspAiiAs0u7SDIDkAX66DX1QoOe+Dyh0+AOa7jYejJ/H458lUyqP275oyAYAFUFuzwh4MQLkeKQSsCP9iGF2O28lakTAx1HRZOiiomJIPPBKo7dSavrcJRnPRsCdmk0t7Notkhp6908S/kXjpUt+hN49P5DByjQ8vp8wGZo2a24aeY0qqOl3AFKnpBkAgcS0uPcfRBl1bFkuFwjcC3/soobz14EBtJTKEoxXkvHsXDt+axYEdu2ihzI3i66xcu7cud1sIhtSXvMbAKloV6kCiAbAuYv3DDmwLJRrBM5doo0dJqGiUGr6NUDyGQJFfm5rDAR27fA+A8AbdVZjthnBAPCnKJYqBc0ASJOatoNw4MRNivjcVkcEDhynjR117kg4AsBgQExejMDly5fgwgV5mT3NAiXqfOmS54G4zKKn2nIawQAgedElTkyLhpcnZ0YSxpv+4klIAlDHxhv/ukDqnTp3MCsgkWheoMTOubn+COz0wq//WNR37dyp/wCYXAIjGACkH7HExLzqeXNmIg3hr5vPwoOHdGc6khDc2G0EIiKj4fetoW63i9sgXy7a3KHOXSEL2YIgAcCNdUfAm8/CvdH3QfaEM4IBQPoR8yMaAIXy0yL54eK/5LcTsseF+amMwKLVx8mGGyUHBapH3b1CFirDxOwNjoA3n4Xv3M6OgNTpaX4DwJd2k7FyuXyQIAEtqdqoGXshOuYpdSy4vUYIPI56AiNn7CH1hkmoKpfLT+LhR5y7onM2AEgjYO7G3nr+Hztq6AeAGDB5joARDABdZUibOjkUImQTROhPX7gL383Z7/kocEtNERg7ex+cu3Sf1GfRgtmA6sWfKBF56j8jKcGNTY2AN5//xw4cY0CbwuRfIFr3ttakcHRR0bRANChAjapFyGoMnbALdv1Dz65HFoQZOEVgx74w+GrS307rKHlZo0phJdWc1pEwd0n/d5wKxy+lIvDs2TP4YshgGP7NV/Dw4UMpvPkMHECWDwSOydfD/gdDPhsIOFbeQuY3AIiR6HCgWzWuQB5v3FZu8tFquHiVllyILAgzcIjAhSvh0KzXGoiKfuKwjtIXrd6VMGcek51HI5XKy/X0QwAXFFxYZkyfChO+HwcVy5eGZUuXkAXy5vP/WPD+knATYN2fv0PVSuVh0oTvYdaM6fDpJ33h6VPvONI1ggFA+hGT8BUFJYpmh4J5s5D/Q1679RDe7rKKjQAykvIZ4OKPY4NjRKUiBYIBjwCo9JhuvNJCGVIV4PYuEcDF/7PBA+CHmTNe1r165Qr0+qgHtGzeBM6cPu2Sh70KePZ9/nyovVde9Qwx8NQP4PSpU9C8aWNo37b1KzEFFi6YB58NGuAVOwGmNwAePSJ/Rdn+w7zXqqqU/zhHTt2Csk0W83GAFDTlMMFt/7JNF8PR07S48bHSyJorj3kHQM4AG5RL7OI/e9ZMuxJu2bwJqlet5NGxAN+B/w9Sd/0AIiIibNv9b1arDNu2brE7NnNmz4LBA/tb3ggwggFAOse8ffeB3QF092GXdm+Snbpi+8SvzLc6LIcRwtNcxnazu7pw/ecIIPbDp+2GGh1XwHUJX/7IFZ1GO7WpLgXiu/fJuxGk/ztSlGAmdhFwtfjHNoqOjrIdC1SuUBbWrP7FLi97D2WdfdvjbbZn7vhC/PLzKqhcsaxtux+xd0beYAQYwQAgHQHcviPHAMCcAD0713Y2H9x6hz4Bg8fugEL15sHMZYcBA88waYMAxmaYsfQQFKw7F4aM2ynVCOvdtQ74J5Nz++7WbbK/CO0qgzbD4XW9KF384wITFnYZunTqCC2avavoWIDP//9DTwkWuN3frEkj6NblfbgSFqZ4TqIR8Nkg6+4E0C7RK4bRaUXSvuztuxFOmbvzsmfnOjDphz/h+k15v6tnRbKgbp+vh0++3QJ1qmSHamWyQrH8aSEkc3JIkTwxeHM6XHfGxlFd/Mq/e/8xhF6+D/8cvQ6b/r4Ia7eEqmJwZUyfAj58v5YjUdx+LmH36prbnXIDVRHwZPGPK9DWLZttxwJdu/eA3n0+hmTJ4qd7CLt8mc//44AW6weQOXN8Py7c7v9u7GiYMW2qyy9+RxNj9g+zbK+GfTOCHDPGUR96PTeCAaDcHLODkoSvqJdcUwQlg5FftIYOH02x0xPtEX6VLlt70laMRAnStdRVHJ/843Tt353OR3/ZBpIH0jIAxu3v1m3y7tVVd+Q3Yt2wayT7n6ySzP6pi3+sMrg1PXH8OFi5fBl8+b9h8Hb9Bq/ouXMnPftf6E+5IFvuybCBAAAgAElEQVQGWh4VMvgvGJy/Gg0hjTxzhoyVAX0imjRt9opIuN0/9Mshbn3xO9LJqkaAEY4ASJfnL1+942jMPHrerlklcoQ3jzrmRoZGoFrFgtCycXmpMl65Rp67vAMgdUQ8ZyZr8Y8rgaNjAer5f/ZMvoZZ/FFfNERQJgrFxcTT7X5X/aMRYLXjACMYAKQdgPMXb7gaN7feY1jg+ZN6QCp6rna3+uXKxkUgZQp/mDWui/Ttv9CLtHTEAjHT7wAYd9SVSxZ7z9+Rt79yTvZrPj8WqGiLJfDgwQNQcuZtn9Pzp9WKkzKwO2Pt8bsqb8Q/6nCHGcYDiIyMhDGjRsBb1avA9m1b3WmuuC4aARgnAMfcCmR+A+AS+Uc03jgGZ0kDM8Z2lv6DH68jfmB4BNAgnDO+O2QPTidd1vOXyMYr7wBIHxX3GMYu/nHv+bvHQVnt6OhoW5CaShXKkM//KxMXW2USu1erKtEoCQ09B+XLlIAxo0dCVJS64TFscQJEbAcrGAFG8AEgHQGcp39F2Z2pjeuVhk8/rA8jJii/mmOXET80NQKDejeEBrVLqKJD6AWyAcCZUFQZGWVMtVr840pz7Sp906dqcdrXtjJ03KslQ6Zr17Szh9Xa7XEPNXptI+wAXKSocTHsFjyOUueK3fDPWkC7ZpUp4nFbEyPQoUUV+GpAU1U0iBJRAHHuEgj3II3lUUpQxmxN9Vj8ZWBktPP/WJ3QDyAkI80PQAY+7vCwghFgBAMAdwDuugN83LoxMU/g+CmSG4HDrnH7d+Z3XVT7AnTYMb/QHYF3apdU9Rjo5Nkr4loSKScB/r8hBxLQHWgTCmDWxR+hpm61qzlcMnYB1JTPiryNYAAgrsco4B45rt5OqK9vIlg5u6+I/laNIiK3NRECuOuzbFZv8PFJpJrUh46SNr5QLv76V210HDPGxf/zIYNeie3vuLbx3hh5ka3yhvGcE403gnIlMooBcJSi1uHj5B9Tp91j3vbpYzpD/48asGOgU6TM/RJ3fAb3aQRzJnQDNPzUpCMnyEYrGwBqDpAd3rFf/uiMZ1aieturqXe1EsbzTVBTXyPwtoQBcPDoBdWxxMXh2yEtYeWcvoDXwpishQBe+1w192MYNrCZJkbewaPnqQCyAUBF0I32Zt72j1XTqOf/sfKZ0Q/AjSlkyKqWMAD+3ndasysZDeuUhP0bhkOV8vkNOaAslPsIYJAfHFO1vP3tSYRzlkiHie25uUIEzL7tH6umkc///5ORdwEUTksp1SxhANwUSVVOnaVfj1GKaEjWtLDppyEwf/IHkCFdCqXNuJ7BEMDY/gunfAgbV34G2UTsB63oTOg1ar4JvAGwVyt5vbmf2MXfzNv+seNn5PP//2Tk3VUt/78ZxQDAPfzrFMX/2neK0tzttngk0KZJRTi+c4y4KtYM0qQKdJsHN9AHAUzp+/Wg5nBi11ho9W4FzYXYtZc8V0OF0KQ7hJorbcIOrbT4I/xGPv+PnR5mkNGEU9mhyEYxAFDAnQ6lVPBi5x59jkSDkieDz/o2gnP7xsN3X7WDwvmzKpCWq+iBQJECwTBuWDvbWGGAn8AAeYl93NFn527yXOWvf3cA96Cumot/pjQ+MPHjDJAlnXZx2Ix+/h87RBgLQMt4AMHpfWFyvwyAY+KNZCStd4kBaOjpIGzYesTTplLaBfgnAcwVj+Xfw+dh0YodsG7LQUAHxadPrRE3WgpQGjJJmDAB4KJfs2oR25d+0YLZNOzdcVcbtpGP7/c45s5vqAiovfhvnJQN8gb7Qft6QfC/WTdh3JLbEB2j7m+EGc7/Y8cNjyrm/HqPOoxO2/v5JoCPW6aCwR3SgH/ShFC9pD9U/+A8hN2McdrOai8TGEihikKWbRR5zuz5HnJkkx+znSIT+ids++s4YKyCY6cuw8kzV+D2nQcih/1DeBDxSMSt9q4JR8HSXls/Px9A4yuF2IlBT/68uTJBPlEK5stiy+qY2mBJnc5duA45Svayp4o7z6qLypvcaeCkLmnlkZlO14mMmr3SavGPq9Cx0Mfw0ZhrsGFvhGp6zv08E7SrE6Qaf5mMcfHvOEyd4G4oZ80y/jC+bwabERaXTlyI0sMI0HUN1rXz1yZNYvFvNPvwT49oyqj3oVv7tzxqa9ZGCdK1JIn+7PpiUnu9+ycJr0PjqXPXQ/d+s3TombvUE4H0qXxg48RgKJDd8c/b6u0P4MPRV+HCNfmhzUN/ymWoFMDOxuJcWDTkeJd8SyZeF7jNP7xHOqeG0KmLUVBN7ARcvqHZh5mua7CRfAAwhdM/8UbNjQd/bDzgRm2uyghoj8Cfmw5q3yn3qCsCuPBsmZLN6eKPAtavGABHFueAfq1Tg6+PvHXBLOf/sYOE8sr0A8Dt/gHtUsPJpTmdLv7Yf+6sfrBhYjav8QkwigGQRWA/SJSQ2EngyZ/rthyCh5HqpoL0RC5uwwggAjg3/9zMBoA3zQZc/GPP/JXoHSDOo0d+mA4OzM9uO5eWQWY6/4/VV9ZtgBql/eHgghwwvHs621m/EsKjARwzb3AMVIaIEtQ8q1NVNPtVlFBRvhYlg2dsnreKePgYflv/L4UFt2UEVENg7YYDgHOUyTsQcHfxj4tK/pDEsGFCMPz4VWbInNZzX+0MqX2gZY3kpgO8da0gyEjwzM8qvPuXfZ0Z/vw+ON5ZvxIw0AjY5AVGgF4GQG0xCHjtDx2Z6ooiLfD68tV/KxlfrsMIaI4Az03NIdetQ1z8cQF53dHMXYGav5Ucji/JCZ+4eSyAnvRLhmWGC6tyAX4Fm41Q5vPCb2GpWMQxR4AIu6KIYrf7j4mjlCbVaYZPHm2MAIWaKVLf7Upad47xc8eKggaAKoQe4dePTYOkSV718FSlMwMw1dsJT+/+DTAEikSIfBQF6fJ3td38YLI2ArGLPy4gMunoOXFbYOw12OjgtkBy/4S2M+7ujVO69DeQKZcWvPCmxJSVd2He2rtw78FTu12+VcofJn4S37vfbmU3Hp4UtwPQMVClK4LjhSi9RSHdxnFDnVeqarUDgK6v34iCB6CqLf6oGf7ArvqN46R4OiG4nToI4JzkxV8dbI3EVa3FH3XEGwR4LLD4f68eCxTNnQSm9s8Al1fnhgkiwJCzmwZGwsodWfBIZHzf9HD5l9wwfUBGKCZ0jiXc7sedgnXjPdvudyWHyjsBPUX/40TR+mPcprYWnRYT/cwVpYgroGW9f6tyYVi3HH0KrU96f4Hr3b9ZRrhm029EYKhDZhGX5fQAATUX/9fFCX/4VHwR34GKRZNB+cL6RLR8XSat/73rcCTsOPDQtuOh1MGPIqMVdwLUNgDaCsCniaLpDMU4/ad3jzNcUCDK5HPUVu8FWO/+HeFipOfnL90UwX96ckRIIw2KZFmU3POX3CWz0wEBleME4FrZXRTNjgPUOgLAw6+poswTRdPFH+cERvOau2SrDtODu2QE4iMwe/FmXvzjw2KZJ/jlv1XBPX/LKOzFimCcgI3qxQnoKqDV9DhADQMAEzqvEgWV0Y1mzN/AYXZ1Q587jkUgOvoJzFooK2ov42o0BPDLH8+eZTv8GU1Pluc/BHCsN0/ORrqe6QRP9AmYIorau/M2EWQbACkEz3Wi1HGioCavrly7C0t+3qVJX9wJI+AIgR9X7YRLYbcdvebnJkaAv/xNPHhE0TXYCfhOiKi6ESDTAMAv/9WilCdiK6356ElrpPFiRoyAJwiMnYJxrpishgB/+VttRN3XR+WdAMwYpvpOgCwDAM/8cdsfM/oZhjAV7+YdRw0jDwviXQhs3HbElhqayVoI8Je/tcaToo3ZdwJkGQAzBYg1KECq1fbr79AuYWIEtEfg63E/ad8p96gqAlpe9VNVEWYuDQGV4wTgToBqxwEyDAB0WsDrfoak9VsPwdZdxwwpGwtlXQR27D4BuAPAZB0EeNvfOmMpWxOzHgd4nmXiOYIVxB+jZYMpm9/Q0Stgw4rPZLNlfoyAQwSGfLvM4TulL/zTZYQ2645AQl+5IWWV9m+6euL67/bhn8KhBXh0Kpe86cs/5skzwKA3h88+Bgw/jCFwr96Kget3ntj+/kAEIYqlR1FPIfLxM0iVPBGkDnpeYv+eO4sf5AvxA4zil0dcn8M4/Vam2OMAlcIG4606jCPeRxRpcQIoBkCAEATv+fuqMagJEiaErBVrQLI06eH4SuzGc8IvsS07j0GV8piKgIkRUBcB9DvZtJ3+9V+oVRde/JUOFS/+SpGKV+/6nRiRX+AhbBA5BvYeewRHRdz9qGj31pjb958AllMX47G3PfBJlAByZfGFcoWTAab6rVg0KeTMbD3DNvY4QCUjAI8DkKQZARSTDM3sbi8EkvaHb1J/KND8PSjUsgskz5odoh6Ew/w380JU+H1SH6XeyAl/rf0KEiakqEwSQZXGekfi07t/VUAlMH369BmUrjUY9h04R+AifjCTJIO2G49DkhSpSHy8ojEv/m4P8+6jkbB0w31YtzsCDp15LIKnuc2C3ABj+DesHAjvVgu0hTROJONAmiyVHAYqhw3+XkgpxQjwFHLc+pce6Cdb1TrQfPUeKP/pcNvij+QXEAgFm71PHpU9/5yBhSu2k/kwA0bAGQLzlm4lL/7IP+87rXjxdwZ0nHc7Rw7kbX8FWB0/HwVfzLgBuZuegTLvh8KYRbfh4Gl9Fn8U9+K1aJiw7DZU7XEeMr19Cj4cfdUmjxVIA8fAUTJw8sQAwDZSwxUmTZ0Oan2/COpOXgaBmYLj6VW4TXcpW6GDvv4RHkZaY4LFA4kf6I4AZvsb/M0Sshx4/FWk3QdkPt7CIKEfJhuVS1Y5838qjuvX7HgA1T88D/lbnIH//XATTl+KkguWBG54DDFpxR0o2vYsVOgSCvPX3oPHbh5DSBBDKguVjYAYGcJ6YgC0ER2XlNE58kiVuwC8u2Qz5KjRwCFL//SZIM/bzRy+V/oCI7J9O/4XpdW5HiPgFgLfjFsFYVfvuNXGXuVcdd6FFNlz23vFz+wgUKLbpxCQIYudN549ssLi/yjqGUxfdRcKtjoD9T+5CJv2PfQMDB1a7TwUCe3+FwY53z0NE5ffAdTFrKSSEXBJ4DFMBibuGgCJRKdDZHSMPLJWeBMaLVhv96v/9T6Kd/0UEvrQ/Q1HTPgFjp5A/JgYAXkIHD5+EUZPpkeeTJAoEZTsPlCeYF7ACf2Gyg/4VpqmX3ZKa9rY/vjFv+D3e5Cv+RnoOuIK4La/WenyjRj4aMxVyNXkuSEQHWNOQwCNgM/fTyNzGPoKZg9kMHTXAGgqOs0lo+PgSjWh7tQV4BeYXBG7oOAckLdha0V1nVWKioqBrp/M5OxszkDid24hgI5/XfrOAEz8Q6VcdZpAihx5qGy8rn3Omg0hS/nqUvQePu+m7Wqb2Wj9nggo2fEctB0aBuevRptNfIfyxhoCRdueA9TRbPTw0VMYPveWLLHXC0b0O8YvpHHXAOgvQ4vUeQtDzbHzIGEi924hluzeHxJJOO/b/vcJmC6yBTIxAjIQmDp3Pezae4rM6vnX/wAyH29lUGnwGCm+QufCouFbYQSYhfD8vOngy1Cj5wX45yReFbcmHRPXE1HHJoMuwaXr5jFwvhGLvySDDLdzPpI5uu4YAKVEx8WonWNwk7pTloGvP4YRcI8CMmaF/E07uNfIQe3+/1sE5y5cd/CWHzMCyhA4e/46DPhqsbLKLmrlfac1n/27wMjZa/SbKNpBzu/jyAW34Mxl42+fL153X5zzn4XlG2nXpJ3harR3KzaFQ+HW52DhH/eMJlo8eU5djILRC6V9/WNI4OPxOiE8cMcA6EDo52XTqsMmkxx2Snbrb7saSKX74cLR5IPJ8OTJf1GtqDy5vXchEBPzBNr2mAThDyLJivsm84cyvT4n8/F2BrIcAtHxrNd31wwL5617T6BR/0vQ6vPLcPMu/ejJsIo6EOzugyfQ5sswaCZ2PhALoxL6MEi6zYAhlqQ4/sXFSqkBgN53Lakg56rbBIJFdD8K4ZXBEsIIkEF4FPDt+J9lsGIeXogAev3v3HNSiuZvdP4YkqXNIIWXNzOR6RD4q7g+9/PWcMPBuf/EI9tZ/yoDyqY1WMvEzkfx9udg33HjHX2s3BwOf/wtzWfhY4GtFMe/uGOk1ACoJBqlpAxu4sAgqDBgBIXFy7ZF2vYAdAqUQZgnYPf+MzJYMQ8vQgDP/L8aKyfbHx5tFW0vZ+vai4bAoaoyHQL7fH/NUA6Bc3+7BxW7hkLoFfOcgTscKEkvLoiAQpW6PY8dIIklmQ06/vUZJ20HSarjX1zllBoAdamI4NkcxvWXQZgcpXz/4TJY2Ty3m3YaBzdvG8/Sl6IgM5GOwPWb96GZmDN4BCCDyn0yTIT+TSqDFfN4gYBMh0C8FaA34fW+3mJB6fBVmKEMEr1xie0fb21g7IBPJlwTN7z0l+rrObcADRMJJN3xL65MSg2AOhRFcMEu0Ow9Cot4bUOq1QO8SiiDLly6Ca26TmB/ABlgWpwH+oy07DoeMKiUDMpa8S3AwD9MchGQ6RA4SjgE6hk9D7Pz4eL2/RI5c04u0sbihuGN2wsjSc+YAZgHYMwi4zr+xR0xJQZAkGiQjzLMuWo3Bjy7l01Vvvwe0HlKBq3bcgg+HyHteqUMkZiHARHAcNKYXVIGYcKfykPQsZdJDQTw2nBg5mxk1ugQiHHq9SB0IGv+2WVTeLzrgY+9PjEQUqMBl3TbKcGdGkmOf9Ii/tnDCZ8pMQCKK6znqA+R3Y+ezMceczw7Ld3rC3uvPHo2/PufYfHKnR615UbWR2DB8u0wahI92l8sUqU+Gvwy6ZX10dNeQzSwyvf7RkrH6MyltUMgbmvX6XMB0JlMJ0Kns22iYPa5nqI0FAXDwGcWBdNUYsFEDPiRiJYWXhOvLkpnUUaLgv9ZQkXRnNCB820RAlnrMMJ4RXHtLmm+epjxTxoze4OgJDfuJ6Khx5mHkqZKA+23ngVMcKIGPRMHPj+1fguuHdgthX1iP19Yt3wQVCpL2vSQIosSJnqn49W7fyUYyaizZecxqNnsG8BIkjIoTf6i8O7SLW4Hw5LRt7fxWNP5Hbi4gx74KySjLxxdnBOSJlbys0lDGbf9G4uv2NXbVf39f11IPG/eKsqvovwpyglRZDi6oMGAjuRvifKOKGlE0YTqVwyAFcOzgK+P+mMWEfkUCrQ8K+vsf50ASM4ZtxOklazKOZ20d/kqc9mqqi3+2DkaFlW/mgSJEidxKYuSCo+joqFR+zFw8swVJdW5jhcgcPxUGDTuOFba4o9ztfrw6bz4azR3Kg4aLSVCIHrea+EQ+ExEIe48/IpWiz/GPMZFv50oaUXBe9qY7fWoKDIWfxzly6L8KEonUfCu65uizBWFHkADuTshNKDQcVILx8Cv59yUtfir6vgXFy4lBkCIE3xdvkpXGHeM1KVUufJD2b7/k9bJrTsPoG7LEXDl2l1pPJmRORHA7H71Wo2A22JOyKKyfYZC6jwFZbFjPi4QQIfAYh1xB5tOWjgEDph8Heb8qnqUO0wPiFv7+UWpIsp8UbQIJ4hGxUZROoiCKRxxhzlMFNVo0Z/3ob/AVE06gY5/i6U5aY4VsuLui+qkxAAIpkiRWqT71YKKtOkO6FEti86EXoMaTb7m64GyADUhnxu37kONpt8AhvuVRZiwBuNYMGmLQPGu/QB9hqikdoTAeWvvAYYhVpHwqxu/8HFnt7comiw0DvTBFXPMC1nQQlPN0xLD8aJzoFqEEf+ihMOmBEJjSHrEP0dyKTEASAGAArOEOOpb7vMECaD611MBfQ5k0RGRNrh28+Fw7755cmnL0t3b+dy99xBqNRsuNXV0khSpoPo308S5lfrnkd4+fq/rjxECK/SXkzL4t50PVInCd+jMY+g+UrU1ECFZLkpuUdC5TNWOXsffxb8xjN8EUfKKggaBlAv0r/eJxyp7jsk/dcA8DOt2S4v4l0nIfUCUWaK0FYVutb4ORJx/KzEAkjlp7/JV0pTyFmRXnWEo1apfTZb6A7vvwDmxBTwSHkQYL9SkKzz4vWcIYGx/3Pb/51CoZwzstEJfFTz3x2RYTPogkKPmO5CpNPqi0QmjvGG0N1kU/vCpLcudTJ5xZDsj/o6xXDCdO57HG5XwCAKPBN4QZZ9sIXH3Bh0rb9/HUwg5hI5/fcfL2yF8IRXuzrwnyjxRLoiC46eKQaC6AeCTVNsIZyHV6kLxzjiH5NGO3SegTotv2QiQB6lhOeHiX6fFCGkx/mMVLd71U8hWpbZh9ba6YDGPHsJfYz+Hq/v/kqIqOgTO+FmejxB+nWIAGRUIz/bxet7vKvBWiyUG2ignyleiyFutBbNL12Ok7rJMW3UXLsqJ+OcMyxzi5esGwQ/iGTpuko7olRgAmAjIY0roQ2ruUb+lew6RFiUwVgBMHIRbwjIyv3mkFDdSHYGIh4+hfptRgAafTMpSrhqU6jFQJkvm5QYC57f8Dj/WLwX/zBwLT2Pk7S5XKELaHH2pAW4hL1kv3f8OtyzxjB8XCXkerG7gTqyKA/W5KHhj4AaR1yvNl264D/OFr4UMKl9Y2w/cFzKjQdBRFLxJcV4U9BtYKkoXUbK/qKPoDyUGgCJGRqqE261vjpgJgZlIxlE8lTDzG94O4OOAeNCY/gEadmjg4X1/mYRzsMaYuZAgUSKZbJmXAgQiroXBH71bw2/dm0D4ZfydlEcl8ycBLFS6E/4EespPO4zn+xVEQS9/s9MWoQDuBkj9j/nR2KtiN4BuDJYtlBSK5abPA+Ig4bkiHu8IByM4+6LMFn+i8eeULGkAoMbocFVr/CJA5x+ZhDsBfBwgE1H9ecVu+8v+8vf1D4DaE3+0zUUm7RB49uQJHJw/GRa/XRzO/vmzKh13b0zyjX4pU78J1+HKTTnBpV4wxe2r8qLsV0VxfZjiGTg6b+yW1f29B+Ls/ns5Z/fdGqeQJZYsPrgL0EEU3CFwSpY1AFDrtAWKwVujZ0v/+mIjwOmcMtVLtRb/hIl8oKb48k+Tr4ip8DC7sNcP74MVzavAjuGfQnSEOjvfKQMTQYu3kpOh2vLPQ/hhjTw/AiEQeo9XFOUcWTjjMcC7kXgcsFmWaMskee+3qhkEgcnMuZSaU2o3ZgA6BVYYMMKNFsqqshGgDCcj11Jr8UedKw4eDcGVaxlZfUvJFhV+H7YN6wsrW1SDG0f/VVW39nWDIFkS2k8nRvv7dOJ1wD8l0SnBByec/rmLJSlkhw1adA1EkbYT0FMcBVDv7+Pi37oWpkMwH9FmsUn0Ldy6GxRp94F0adkIkA6pZgzVXPyLiqhzBVtg1FMmLRA4vXaFbbv/8KLpgLlB1CQM4dC1EX37f9XWcNh9VNqddMwah3Hjr6mpu0F4Y2YkvNKIoYrJdPx8FMz8hb4L062R4Y4BFGHjFQYAIlH+0+GQq24TRaC4U4mNAHfQMkZdNRf/PA1aQrmPNQvkZQxAdZLi/sVzsKZLQ1j3cXt4eEObuDbVSvhDvmx+JI2fCBtlyHRpju3o7Y8JdkJJQpmrMUYQRJ3xTzJhfgdq+t6iwhGwnHAINBv5mE1gT+W13Qz4dgbEREZC6CZMdiWPYo2AtT8OgAB/3T1C5SlmQU5qLv45ajSAal9PUTX5lVGGJOZRJDyJeqypOE8ePwLsF+nUr0th//TRL/+thSB+vgmgY70gOHs5GjBbHwbv8YQ2738IR85Kww63Nq3k8KcU0tOiYgtR1opCumKDsQEwpsOHTWg7O92EY+iuw9J2dZTiQKonNrRcEumUqvtRdRxxXErtoAL+aP3Woylc2rnRQQ3PH1cskxe0NgL0Tserd//ujJaaiz/moag7aanbWeemFAhwR4V4dSn/v54+iYFphc25dRkPCO98MEOojXe/vZlwu20wFYDMaX3g7IpcgEaepxT5+BlkaXBKaqRBT2WJ086pQl5zBBALSCK/xFB7wmLIWByvlsolPg6Qi6dMbmou/plKVoDa4sppQl/a1rBMfZXwSgBOfxuUsOA6+iEQKrruq1/3hul5qJBkL1WayzdiYOVmdC/wnJImTgDzv8gE7eoEQXB67QPgeSK51xkACBLGBqg37SfIULysJ5g5bcNGgFN4dHmp5uKPhmTdqSvBJ4mcqHC6AMSdmhGBbkJoY22v6oMiRvPpKAo5qs+kFXfIGtQtHwBzP88E51flsu0ozP4sE+CtkWwZjGkQeKUBgKOMQVrenraKjQDylDc2A7UX/3rTV4FvMrnBpjRDlLMSaga15I4wvv8fknmamd1hIfx4qgLbDzyEA6fkJX3LnskXOgifkTlDMkHoT7ng3ErjGQReawDgZGEjgPpfxtjtefE39viwdB4hgF5mAz1qae1GeBRAvgoi40qgI5hDMsY3CNA4wB0CfKcHebUBgIDbjIAZP0tLExp3EPE4gBMI6TGtATCxT4O2o6Un9kFt8OgIj5BM++X/YkgS8A6APpOT1usk0dzIKX1p2nneGg/wv/W8+fOWyzeFA17T1IJw0cfFH40A3B0IW50bln6dGbo0TAEFsifWQgTwegMAUUafgLqTlqlyHMAJhDSZx690gl/+tZsPh807pMQKeYU3nvm/Pf1nm+HIxAhojAAucvLDmmqshIrdYTIczIznMV29FQM7Dz70uD2lYcY0PtC0enKY1j8jHFmUw3ZsoDaxAfACYT4OUHuqacMfF3/M2Ii7L7IJF39Tn/m/DgjvALyOiNH/jdf+rBzql4o/HuCPozJZtpF2G4Daf2x7LRwH2QCIM1psBMiauvrw4cVfH9y5V00QwHgs0zXpydyd/CDEJ0XjWbPDGAaAFsPABsBrKLMRoMW0k98HL/4eYsq7AB4Cp3kzjFwmf1tLczVU7xCzBi6h9HIuLBouXCPfKqSIoFlbNgDsQM1GgB1QDPyIF38DDw6LJgsB/vpXjuRC5VXt18Rwzd5AbAA4GGW+HeAAGIM9jvX2V+PM34xM5aAAACAASURBVCre/gYbMhbHfQTuiyar3W/mtS02Cc2vU7TfwgYABT5rtOXbAcYeR/b2p48PXwWkY6gBh+WiD9K5tgYyGqmLJ0IYksH01xHvgJt3AFxMW94JcAGQTq/5y18n4LlbPRBYoEenJu8TdwE8ppMXouBRFCkPnsd9a9mQDQAFaNt2AqYsVyVYEMYJqN38W8CvWSZlCODi/3brkarc88dtfwwR7TX3/NkJUNmk068W3mvfql/3pu2ZlO4V0z0fPSctZbNhQfQxrGQGEyz2OODXro3gyv5dUqWLDRakdSphqUpoxOxBxCOo0+JbvucvCW/MCOjpdw5mP/RNqlMSJGG4JE6uXypjP/9ASJCIlIbeNoJPHj96cPv0MWfe/UuxmqTh9iY2V4Sy50XJ5qnSx0IfQ/G8STxtbop2SvKBevr7YAOAkq/ciAhGR0bAb92bQNjubUYUj2XyEAGv+/L3ECduJhuBRFOmFEjaQzZX5mdDABMm1fQUi2Fd08LgDmk8bS6lXYJyx6h8nK7xfATgJrxqHge4KQpXl4QAL/6SgGQ2biOQKOGTULcbcQOlCDjbWXHJ4/xV68cCYAPA5TSIXyH2OABDwzKZGwGO7W/u8TO79DFPn10wuw4Glp9kAFy8FmNg1eSIxgaAhziikxhmhGMjwEMADdDMcrH9DYApi+AeAol8E+E5NZM6CJyksL11z/quF2wAEGaIzQiYsUqV2wEEsbipAgQ4yI8CkLiK6ghEP4oiBaxRXUBzd3CDIv6dcDYAKPh5RVs+DjDfMPO2v/nGzLISJwryjpiz+gxgBKXbuw/YAKDg5zVteSfAPEPNX/7mGSuvkDTxHTYA1BtoErbRMaQLcOppJZEzHwFIApNvB0gCUkU27O2vIrjM2jME7qQkLVKedeo1rUg7ADHW3wAANgAk/l/g4wCJYEpmxdv+kgFldoyA8RGIoogYwzsAFPi8sy0fBxhv3Hnb33hjwhK9QCDlHZ1CKXrFCJBCRSZJ7DSGjiUA5B0AFYaRjwNUANVDlrzt7yFw3EwbBB6nZANAPaRTUlj7J7H+8mh9DSkzgNDWZgRMxiyeTHoi8Pb0n70nsY+eQHPfniHw5B4bAJ4hp6QVzQBIav3l0foaKpkmKtXxTeavEmdmqxQBHgOlSHE9PRDwTeKXTo9+vaRPkgGQJoie7MnoOLMBYPQRYvkYAUbAsgg8iX7icbY6y4IiT7FcFFaZ0lo/WS4bAJQZwm0ZAUaAESAgINIxswFAwM9F00Iu3jt9nT4VGwBOAeKXjAAjwAgwAp4jkACehXjemlu6QKCoi/dOX2fP6Ov0vRVeWt/EMfkoLf1lg8k1oInfrMGbNAbcWnUEIm9dh8t/b4VrB3bDnXMnIfxSKETevgnRkQ/haTTpKrbqshugg25CBiyOaLx40cvRS37uEAE8wM/v8K2CF3mzJVZQy9xV2AAw9/ix9IyALgg8vncHTq1ZCid+WQzXD+3VRQYv6bS50LOvKF4Ql07qiBYU3Eg3LPIG+0kVyIjM2AAw4qiwTIyAQRGIuH4FDsz+Ho4unS2+8EmRVg2qoeHESi8kekuUPwwnmbEFqkcRz19cAcyZhQ0ACobclhFgBCyCwNMnMXB40XTYPf5/EB3xwCJamUaNlkJSNgDcG6767lV/tXbxvEkgkRe4yPMOAGWWcFtGwAsQuHf+DPzZtx3cPHbAC7Q1pIqNhVTdRYk0pHTGEyqtEKk0RayS+ZJQmpumrRfYOKYZCxaUETAcAuc2roHlTSvy4q/vyASK7hvqK4Kpen9bSEuK4lOxKMl9wDRgsQFgmqFiQRkBbRE4sWoh/NmrDUQ9CNe2Y+7NHgKd7D3kZ3YRcHarwm6DuA9x679aCTYAXALFFRgBRsCaCBxbPgc2Du4GePbPZAgEqgkpchtCEmMLUUqIR9r+L1UgKaQMJG0gGBuhONLxDoBphooFZQS0QQC3/bcMFVfPnz3TpkPuRQkCmJv2AyUVvbwOGaN65QO8BkI2ALxmqFlRRsA1Aujwt3FAZ3j2hK+du0ZL8xqdRY94LZDJPgKIDcZNIFGT6slJ7WU1Pn81WhYrh3z4FoBDaPgFI+BdCDyNibZ5+/OZv2HHHQ+mPxGln2El1FewL0X3JPf9gjkSQ75s+tz/xwV/8/6HokTAln8ewrkwNgD0nU7cOyPgRQgcnDeJvf2NP949hIgTRTlvfFE1lRAj/5EdJdvUCtJM6LgLPi78oVfUX/BfV453AF5HhP/NCHghAhjhb++k4V6ouelUxl2AMaI0MZ3k6go8WrAnrWe+PgmgQz31DAAjLPivDwEJsNeZ8b8ZAUbAnAhgeF8O7WuasXtXSFpDlHWmkVhdQfHef21qF+j8lyG1vCUx/OFT+HlrOKzf83xLX48vfFeYyNPWVU/8nhFgBAyJACb2wdj+TKZCYKaQFtPd3jWV1PKFTSdYzpDBtmezVGQ2eHEGz+9nr7kLKzaHQ0TkUzJPNRmwAaAmusybETABApjVj7/+TTBQr4oYLP45SZTWppNcnsB4NRIt1wxUliVE6F9q8J9HUc+gWNuzcOKCeVJgG94AmFKAdiez+1F9E5ck9PUj5USPiYkBHx/DDxP1/5/d9tHRNKcYxJ7JNQInfl7kupLCGqlyF4D8TTpAlnLVIDBzMPgm9VfYUnm1p9FR8K84stg3dSTEPNI2PP6SYZmh2Zu0a2IL/7gHbb4MU66w45qtxKtNouBugDdST6F0XRmK92udmsxm6Yb7plr8UWGOA0AeducMfJPSQkpGRj503oGF3z4i6u6bTP7iYzW4I29dh+tH9pPVQmOr0mdjodnKXVCkbQ9IlSu/Kou/7UdL9FW8Sz9o/vNuCK6IR+Ha0ZSVd8idtawRBHjdTBLhLkBFSbzMxKayEHaEDIEL50wMTSXc/Z/2E31uyNDHHR5sALiDlgd1qV9AjyK1/cLxQEXVmkQSdadir5piBmJ8+e+t5Ih/uCDXm7YSCrXqAgkSaRdCNXnW7FBv+k9Qc+w88E+XURNU8Xz3WOhjUl8Jxa/u/zpjwjophNtcK0TJIYWbOZig78MvokixooZ1TQs4JhQ6ePox7Dxkvt9qotoUyLyjrY8/7Ss0/P497wDKjpZU3XkHwA6orz26dmC360oualTo/y1kKVvVRS31Xues3RharNkPhVt3U90AQSevKSvpfneNqgRCaRFzXhKhI9wGUbJK4mdkNmjorBVFyn09zPrXoBImW6TRVBN+/aPGbADQxt1l68QBtHl6JeySyz6sWiHsMk13v+QprAqNNL3unjtF4oVn/gWbv0/iIaOxX0AgVBw8Gt5dvAnSFnxDBkuHPOatvUv27k4g3NcmfZIBMPOcJAoRfNAIyCSJnxHZoIHzhyhStnsQ+wkf0yMr43W/Bb+b80NN3vQz4nQxgEzJs4aQpLh86QKpvZkbh12m6Z48Cw17M2OnVPa7508rrWq3Hjr8abntb1eIOA/TFioO7/64GSoOGgVoFKhB9x48hUV/3iezLpk/CXRrlJLMJw4DzBa4Q5S8MpkahFcRIccuUXLJkqd745RQLDcpcrBNlEV/3gM0AsxIbACoPGrJs+KOled08YL3Rvy8eCHUc+BEy6BgGvakzk3SOCqc9uWStXx1w2mKBknhNt1txwI5azVSRT4ZzoAo2LBuaaUGnxEsQ0RBI6C8Korrw/Qt0e02UTLL6j5rel8Y1hVPTug0VcKREF2KVzicE/+aI0p7V3zZAHCFEPE9OipR6NiRgyIrq/elZUWdjx0+SIEOqNiTOjdJ46gI2jXZgAxZDKspOgbW/G6+zUFR9m7QPycfwV+H6U5fKQISwYyBGQGPBCQS3mnD64EfSuSpF6tuouNfRaHdvYwjPWI9a1BGCAqgL384B/499UgvbGL7PSv+gvEQcMHPJgp++XQUZZ4rwegIuOrBy98HZctJQuD+vbtA/RImCaBT49BzZyA8nLbNyjsArgcP79RTyNefFqeD0rfStsGVakLzX/aIq4OfQEIfX6XNXNbbJcEAwE7erhAAPcR2tGTC2wETRFksihmdYfDzHD39p4giNaAHHrvUKE1zzo4dK508/8+I/n8QpZ0oGBAKF5n3RMEF/0KsbEr+ZANACUqEOmnyF4GEiWiBfA7+s48ggTmbHvyXpjP+0CP2TIwAIuCTJCmU6f0lZCheVgog2TL4QteG8tbVUR+lh0LyYgPE1bGF+McRUd6Rorg2TOqLbg6Jgn9KpaLizH9MT7rjX6xQOAeCxXGCyvT6go9+EOh5O1+Ui5S+2QCgoKegLd5FT01ciLZvRede76LtW2g6py1QTPzo04IweRfi1tf2zJ+rIGw3HiXTaWyv9JAsibyfz6SJE8DSrzNL2Za2ox3eDFglynJRaFuSdphLfITOiytFwS9/OQf0cYTDLf/l32QGxFoW+SdNCDgXJBN65s4Spa0oePNB2oL/upzyZvDrnPnfLxHIUKwMCY2zp0961THA+dCzcF4cAVBI1pceRQZuaxwEMNfBzm8HSBGoVhl/aFxV/g2D/CGJYdHQzDKvBr6uL2YRPCrKOFGkL7Cvd+bGv3EFnSzKYVFU8drEQD9zh2SCXFmknibYVHy3WiDUFHNCEl0VfIqL0kmUBaLQ7kK7EIoNABcAyXidsXg5MptN69eSeZiFwaZ1dF0zvEHH3Cx4sZyuEcC8AQ+u0n9LE/smEHfHyblnHApcV6SkHfGB9C/KuP3hCthLFLxeNF2UfA6FUf8FntHhwo9fvN1FoZ2VOpEXt/3fqSzfaIvtckLfDIBzQwLh5PpCAh9FLNgAUAQTrVIWcVWKmphm/e+/kp3iaFpo0xqdHjes+43UWSK/xLZkNEyMACJw9+xJODAH/eHo9HGr1JA7q/yvyLiSfdwqFXzYRLpT4OvK4wX4zqLgjsBmUd4TRZqn/eudxfk3rsK4tY1XFQ+Iggu/qp6kmOa3d3N6ql8nOkGeYD/o21JaHz1FXwWd9SfrHRsAspB0wiexiEhHDZX6SGQ9W7saj8esTb/+sgIeP6Jdq0GDS60gMNZG35rabfvmE1JGzlhU0PFvcAd61jglKI8XX5Qd35bnZOikT/xsrSIKnjnj9jNuv/UWJb8oUj5pBZ9CovQTBR17booyTxRN4hS0rxsE38k/oxfix6fBHdLIcghEr0I5Fmt8MV95otqWi4t+ve51jprvwIVtf5L0Xrv6J6hVryEEBWnyw0CS1ZPGd+7cgt9/RV8lGuWoYSaHZ5qu3No5Amf++Aku7dzovJLCt9/1luv456xbvKuO8QEiIp8CppnViDA5Qe0XBbvEKFH7RcErOeiUc0EUPDrAtHeRoqBguIbgzgEW/GFCCymPKPgFG1ukfRoLnoqp+VvJYdbgTOREP0o7jHUIbDKIftQk+sQtzJai4DVO1UiJhUeKQtP9KC3QiGqaa8z40d3bMLdyTngaQ8txX6V6Tfigd3+Npdemu/FjvgGq9z9e/+uw7SwkDlJ9C/UlKJhSF7PqYWKdO+dOQvilUIi8fROiX6QzxpTQSVOlgcAsIZAyR15IX7Q0ZC5TWTyTlhHO4wGaUoC2+2rk/9/o+PdjvRJSzv5rlw2Atd+hQ7a2FPPkGXT65grM/Y0WsVFbqfXvrV2dILH4ZwSfREqWOLny1up9Af78O0IG0zDBBH00wmUws8eDdwDsoaLCsyQpUkH2N98G/CKh0NZN66B6jTqQvyD6z1iHjhz6F3ZspX+p5ajRQJPF//G9O3BqzVI48ctiuH5or9OBeCyC7Ty+fxfuhp6Gi9vXi7oihbv4xEtfuCTkadASctdrqonMToW04Mt9U0ZIWfzRuWt8X1Ud8xyijwvY7M8yQdqUPjB64S2H9fjFfwj0Euf9uO0vObqiYojRIbBIm7PwOJr07Yz94fVNdAj8RHHnblZkHwA3AaNUx/jkVMIQuZPGjYAIYghXqhwy2z8ID4fJ34+UEvJYBsbOdIu4fgV2jhgA86vng21ff+xy8XfIS4zjtYN7YNuwvjD/zXywc+RAeHgDj2CZZCBgc/ybO1EGK/iktfqOf84ExYVs1IfpYLQIFkTNW++sH7O/w+x+iNE4cVSj1+KPGKrgEFhArbFhA0AtZO3wzViivJRUpdevXYWJ330rZcG0I6amj9CgmTJhFNy4fo3cLwb/yfCGnEhvrwvz9EkMHJw/GRbXe8O2sOD2siyKfhhh81JfWKsI7Jn0jRSHNVmymZXPjm/7S8ERk8YMbKeN458rrPF2wPrx2SCd2A1gehWBABGQZ8XwLIAYGYE+65gGQjJKiRCITKaKospZBhsAGs+WQq26SOlx3+5d8MvKJVJ46cnkp2WLYM9feCOITkXaq5P75N75M7CiWRXYMfxTiFZx5yXm0UPYKwyAla3ehPsXz9EB8VIOeMx2Yfs6Kdp/3yc9oHOXUahaiWSwa0YIYEhbpucIFMmVGPbMzq7qPX93scYokRJDDlcS/Td3VwYl9Y0zs5VIa4E6eOabIiSXFE0WzZsJWzbSbhZIEcRDJps3/AFLFs72sPWrzdC5LnfdplJ4xWVybuMaWN60Itw8hleWtaEbR/6BZU0qQOgmWjwEbaQ1Vi+4m7JzxEApQqHjX6Mq6gWP8VTIHJl9bUYAnnXrudXtqfwy22Fin79nZYd82dSNzeCJzBgtEqNGSqLRgo/0ycgGgKTRUcoGEwOV7iUn0BNun0+dMAb27t6ptHvD1Nvz9w6YNnGMtGOMMr2/AMwDL5OOLZ8Df/RqDVEPVHPCdShulMiE+EfPVnB85TyHdfhFfAT2TTW/4198reI/wXj2eNa9YUI2wPgE3kZZ0vnAb2OzwpRPM0ASP1V2x6VAivEcJEUIzCwE+lyKUHGYsAEgG1EF/HLWbAjpCpVQUNN1lSfibHrM8KGm2gnAL/+x3w6FJ0+euFZQQQ28Vpf9TbmJw3Dx3/zFR/BMkowK1IhXBf0ONg35gI2AeMjYf2Alxz/7GsZ/ikcCBxfkAIx2p8eVt/gSqfsEnSC7NkwJhxfmhDrlaFdY1ZX0OXd0CMTokZIIQzhLdQhkA0DSyLjFRuzble8/3HYVTAahEYBe9D+v+FHaF7UMuV7ngTsWK5cuhCnjR0lb/BOIX4Ty/b6RhiXKjNv+W4aK/2tCXt1JyLDli55wfjM9P4LuuqgsAN7KeCquXFIJv6gHtZf2o00Vx2X75P4JAX0V/p2XHaqXlLbl7LJfrStUKJIUdovt/qn9M6iVNVEVlTB6pKSUwdIjBLIBoMqQu2aKNwIKNseUznIIF9eFc2fA6OFfQIQOW9autMCrfqO+/hx+XPCDVCOlYItO0nK8ow7o8LdxQGddv/xfxxJ3Atb3f58dA18HJs6/bRH/dm1yUkP5q4Fi8ZeZ6ld5z7SaBXMkFkcCwfDzyCzwRh7rOAkWyJ7Ylip529QQKJHPfHrhXBokL4R0dTFLWtBmyn+tlXyCkj6DjBwpTBaInvJBj/IfG5SCB1cuesrCbru06TKIaIGfQoFCRe2+1/ohBvnBHQoZV/3iyh6YKRia/7IHfJPJ+erBKI0rmlfV1OHPnbFIW6g4NF68EdCPRBZZIRIgOv79WK84PLh2WQosmdL4wObJ2VRP+iNFWAdMcPPql23hMHTWTfjnJC23hoMuVH+MBs2AtqmhZc0gNVMkq67H6UtRULXHebh8I0ZWXzjRMVcD2TmJdwBkDYkHfHz9A6DK0PFSt69RjBvXr8LQwR/DhLHD4e6d2x5IJqcJxvbH8L4oi+zFH49Pqv5vorTFHzU+OG+SYRd/27ge3g+HFuCVYKa4CNgc/yQt/sg37GaM7Qf71EX6cYJeI4Wni5j+dv/c7LBpUjZo9mZy8PVR8r2nl8TP+8Uzfjzb/2NcsJjrOaBNbV787YyINIdAeZ8SdqTkR64RCK5YA4p17AX//jDOdWU3auCRwLbN6wHjBdSp3wjq1m8MgcmD3ODgeVVM6YtZ/X5fswoiX8TD95yb/ZZvvN8HMOufLMIIf3snCb8Mg9OeicNsoYOTpdEnNK0R4cEjEtkUawSYfScAcalaPJmtXBGGzexf78KS9ffh4OnHsiEj8cuVxQ8wcx8WDL5kBVLhyz8uLFKuPCkxCfkIQOXZiD9gazq9IxLKbFGtpyRJksKbNetCNZFHIDhbdlX6OR96FjatWwsb1v1GTunrTEBMrfz2jJ+lXvvD8L6yQsc6k13Gu2Lv9YZynwyTwQqscASAzpoY+Q8jNcomKxwH2MPk+PkoWCayDP6yPRz+OfEInjy1V0u9Z7hDUTRXErFLEQANRayFYhYLbKTy4j9BjAzeCCCtzTi6bACoN8fd4hx5+wYsb1JJSvISVx2H5MgFFStXhyLFSkC27DnFbrqSaRCfK+4ynD93Bg78u8+WxQ//rjYFZMgCTZZvt2XXk0WY2Adj+8sM7ytLNnt80Oeh7cYTkDg5PS20JQwABImNAHtTRdGzuw+ewJb9D2GTKLsORcLhs4/h4SO5FgHehS8sIvaVLpAUqryRDKqV8Ie0KaR8xCrSUctKZln8ERMlv/wkK4OdAJVPvZvHD8LP7WsDBoHRivBYIH/BwpA1OAQyZwmGjJmzQEBAcvAX/glJkmJ6cIBHkZG25EMPHtyHsEuXIOzyBbh4IRSOHT4I4RrKmjgwCBrMXQtp8snNhHh44TRbYh8zUeXPxwHegKCSZQwABIKNAOp0sLXH3YAzwnHtwOlHNj+IMOG8dvF6jHBii4Y74U8gIvIZRIlMd/cinsBTUTcoICEkFB8RgckSQobUPiJzYSLIkMoHcopt/VxZfCFPVj9AT34z+CBQATTT4o+6Gt4AsNQPlILZdWX/LttxAMaFZ/oPAZ8kyaD+zF+kXvmL5Y5x/q8f3icF7lS5C0D+Jh0gS7lqEJg52MYzXBhMeEUNgwvdPnVUSj8Y/AhvBFDJcv+/2AigTglu7yECZlv8UU2+BeDhYKvVLGPxclDr+wWQ0McajjAycEro6we1xi9UZfGPvHUdrh/ZTxYTZaw05Dto9tNfUKRtD0iVKz/4JvW3Ffw7Pmu2chdUGjwGsC6VMJVw5O2bVDbWay++RCsMGGHDWzZZ4XaAbEyY33MEzLj4o+RsABhwBgdXqimMgIXgIxz3vJ3wy7+2wAJvS6hBl//eSo74hwv629N/gkItOwNGJnREmKugUOuuUG/aSroRIL50w3YL2ZniI8BGQHxM+IlqCJh18UdAHP9aqQYXM1aCQEi1umLLezUkDkqppLol66DuDX5YDdmq1lFNv2sHdpN54xdn5jJVFPPBWwzlPxXhi4kkQ3aiCMZtzkaAccfGQpKZefHHYWADwMCTMUPxstBowTpAz3dvo4CMWaHRwvWQvlgZVVW/e+4UiT+e+Rds9p7bPAq16Gw7GqDQHaLslL5N0ZaNAFMMk1mFNPvij7izAWDw2ZcyZz5x7W2b1KA3BlcZslZ4E5os2wYpc+RVXdS750+T+kCHP0/SEGObfO+2J/V9jyg7qXOzNGYjwCwjZSo5rbD4I+BsAJhg2iVNlVacMa+CUh8M8mixMYGKNhFxUSz90WfijPwnqff8nekfFX7P2WuX77ISohFS2qJgj+/fdSkfV8CJxY6BPA/kIWCVxR8RYQNA3rxQlRM6l5UUBgBehUueVZ1Ifqoq4II56oQ+DyW6D3DqSOeCjduvo0R8AwpRjmcwmRGFMJkUk0IE2AhQCBRXc4aAlRZ/1JMNAGejbcB36GzW/Oe/AcPByswKp5eqqAPqgjplLlNZczGo+eMxoZOnRGmLfT6JMlY8d09x0KydhYyAiMinMHbxbfjrcKRm8Bmtoz3HImH80tvSoxY60tNqiz/qyQaAo9E28HO8Goex4N9dtlWVu/FaqY5OjqgD6oI6MTECqiNgASNgxaZwKNDyLHw8/hqU6xwKb7Q7B9NW3YHwh3LD96o+Fh508EAYPjN+vgslO56D0u+FQq/vrkHBVmdh1VZyZlyn0lhx8UeF2QBwOuzGfokhcRstWA/1Z60GzBVvFkqdpyDU/G6+TXbZYX3NggHLqSMCKhsBlbqdh6Pn5O/O4CJUt+9FaDLoEly4Fv0SwH9PPYJuI65C5vqnoOuIK4D/thph8qIBk69Dtoanocu3V2Df8f90DL0SDY36X4K3ProAx0Ll447hkDE99GURElkFmi54Skns44lsbAB4gprB2mDY2SZLtkDt8YsgwxvqXpujqI6yoYwYLS9nrUYUVtyWEaAh8MIIKNymO42PndbXbsdAjZ4XbHH0ZRAm5hk89QYUEl+6a3c59vvAHYDpq+7adgTKi52BeWvvwaMoUioXGeJ7zANlX/D7PajYNRTytzgDI+bfgtv3nzjkt2FvhE33IdNvQORjOXqj0VXtA9UWf8zq100UOcI6RMbxCx/Hr/iNqRAQP2jZ32pgK7dOHILDi2fCqTU/QvTDCF3VwMx1eeq3FIlr3ofUeQvrKgt3zgi8goD4P1Nx4Ejbo0MLpkgFJzZs8ObJ2SC3SIbjKa3cHA59xl175YtfCa9dwjcAy7DZN+H4jznBSYBKJew0r4OGTtuhYXDrnuMF355Qj0WSItQZDYfveqeHhpUD7VVT9Myq2/5xlWcDQNFUMFclXGirfPk9lO/3NZzf+gec27AaLmz7U7Msg36ByQHDGWd/sz5kq1wLqM5u5kKfpTUVAgY1Ak5eiIKeY6/CH3/TDHjchdi8PwKql/Q31bAsWX/f7cU/roKxxwJ1ywfA933Si6yE7hlh3rD4I15sAJjqv4V7wuLCm6vOu7aC3u6Xd2+DK3t3wNV//4YbIgFO1AM5jjPYT7pCJQAz1GUqVREyl65Ej3XvnqpcmxHwHAEDGQG43f/1nFswZtEtwK9ZGTTnt3umMwA275eTDfW3nQ9gozga6NcmNQxslwaSJnadAFflxX+iGFPdzvxfn09sALyOiEX/jQlrMMIeFqRnIpH3nTPHYck7pUkaN/95N2C0hlXanAAAIABJREFUQmdJcEgdcGNGQAsEDGAE4HZ/3++vwfmr/zn4yVAdbw1M/PgpJPc3h8vXubBoqRigL8FXP9yE+cInYpw4FnjHybGABot/T/z5lTGuMngY3gDoftSx04sMALyVBy7YGMeeSjJ4UGXg9oyAFAR0MgJwm/6jMfTtfkcY4K7CT1vCoX3dIEdVDPV8yz9yvv5fVwqPBRqK2wKOjgW8bfFHfMxhEr4+kvxvRoARYATUQOCFEVCkbQ/p3NExMO4VQfRU/3LmDSjS5iz5rN+VsJv20XwJXPGX+R59FtQkPBbAOAoYQwDjCiBpcNXPUF/+sfgafgdAzYnAvBkBRoARiIfAiyuCz549k347IPaK4Ofvp4Hhc29J3eqOp0ecB5v2qfNV7axPT9/JOv931n90zDNbFMFftoXDoPZpYOisG2rd88czf0Mu/ogPGwDOZgm/YwQYAe9E4MVOQALx58H5k6VigDsBGLhHS8LAQXi2nj2Tr5bdut2X7PN/VwLgsQAGFlKJMMiPYRd/1JmPAFQaeWbLCDACJkfgxU6AGscBeiCj9ta6DJ3MIKNCPXHx1zXIjxI52QBQghLXYQQYAe9EwEJGgFrOdTInhhlkVKCvKRZ/1IMNAAWjyVUYAUbAixGwiBFgBj8ALc7/VZ7Jpln82QBQeSYwe0aAEbAIAhYwAtAPAM+8jUoon+wYCBrraqrFH7HhHQCNZ4jRusMAQRSKjjBvnAZqJMREfokp0Nna6om/EfQnA6glAwsYAUb+wt641zw3FexMO9Mt/rbfHzuK8CMvQsBPhPGl0IOrlyjNdW374MpFUv8ychzoib8R9CcNgB6NXxgBamQR1EIdIzvZbflH3fv/KuKLV/0M7/BnT382AOyh4kXPEidPQdL24s6NpPZ6NqbKTsUOdafyoOhAaStDdj3HntT3iyuCZjQCjOxkZ+TdCSfzxdD3/J3IbXvFBoArhCz+Pig4J0nDY8vnwLMn7qXsJHUoqTHKjLJTKChbLkpzW1u98DeK/mQA9WJgUiMAfQCM6AeAZ/9GlMvF9DL14o+6sQHgYoSt/jpF9twkFW+fOgpHfpxJ4qFH48OLp9uSIVEoJRE77Fsv/I2iPwV/3dvqYAQkS5uBrLYRdwEkff2rFtHHDuimX/xRJzYA7IysNz1KX6wMWd0dIwfCpb82k/loxeDSrk2wc+QgcncysJPBw138jaQ/eRD0ZqCREZDQxxeKvdcbWq09IHaNcpC0NqIfgASZzgpQ8ogyUpQoEkCuG1ti8Uc12QBwPdiWrpG5TGUA8SNGoafRUfBr18ZwaOFUQx8H4Lb3oQVTbLI+jaFdh8JsiplLC+yIpCX+RtSfCJ8xmqtsBGQpWxWarfoLyn0yDHyT+UMm4ryT9LUtFXsJuxKbhUB4Jam/KEVFWS9VwP+YWWbxR5U4F4BKs8QsbJOmSgvpC5eEawf3kERGI2D715/A0SWzIN+77SFr+eoQmDmb7QdLT4p+GAHhl8/DxR0b4NiKueRt/1hd0hctBUlSpiarpjb+KKCR9ScDaBQGL4wAFAeNTBkUkD4zlO8/HHLWbvwKu0ylKpL8V/CsHc/cs2UwRl4AlAVzABBpc5z2eLZXQ5SmoowVJQuRd2xzSy3+qJThDYApBWjX1LofRaOQyRkCeRq0JBsAsfxvnz4GO0cMcNadJd4hZrLIjPjL1F8WjrrzkWQE4HZ/wRadoEyvL8DeVdNMpSqRVQ1pdJrMw2AMttiRZ5l49qson4qCP0qUwB14z9/QiX3s6O/yER8BuITI+hVy12sKvkn1/VI3E8r4o5yrThNpIpsNf9n6SwPSCIyIxwG43d981d9QcdAou4s/qhiQITMkz5rdCNoaRQY8/7/gQBiMLvSlKJRjAfzyN+U9fweYvHzMBoArhLzgfeKglFCg+XteoKkcFQu17EK+vx9XErPhL1t/OaNiIC4eGAH+6TJC9eHTof4PayBFDvRlc04y/E+c92Cqt5sUSHtC1MFjgQainFdQP7aKJb/8Y5VjA8CNmWDlqsU69tL9vN4M+PoFBELRDh9JF9Us+Kulv3RA9WYYawS0xg9Hx4ShoN/o1Bda/vYv5H2nleOKr73JVJp+DKC4M+NX3OqGiKtF3YKifCuKq9sClv3yj8WLDQA3Zo6Vq+L94pIf0K/GWRkj1K3UR0MAHfdkk1nwV0t/2Xgagh8aAWIr31HEQLwB0nTFDijb939uG98y/AAMgZEcIeyd/zvjjDGHB4pSSJS1Dipa+ss/Vmc2AByMvjc+LtK2B6Qt+IY3qq5I53TitkShVl0U1fWkktHxV1t/TzAzfBs7OwEBGbJAze/mQ4PZv0GqXPk9UoH9AF7Chuf/7mzpx8X7lPhHXVHwtkDcxCCTxL8teeb/+mQz/C2A1wXmf6uHAHof1xw7D5Y1qQBR4ffV68iEnBMHBkGNMXMgYSL1/ssYGX8t9DfhtFAm8oudgIQ+PpBQZJAs0e1TKU63uAtw/+I5ZTJYt5a7X//2kFguHuJOwGBRkorSV5Rn9ipa7RnvAFhtRIn6oHfxm9/OVHWhI4qoeXNc9N8a9QMkzxKiet9GxF9L/VUHWK8OhBFQvv+3ULbPUCmLP6qRmf0AEIbNkoYUjwXwDLSPKF6x+CNubABImj1WYhNSrS5UGTqeHCHQEpiIH+6qX02C4Mq1NFPHUPjroL9mQJu8I3YEtA3gZpMPo67iswGgK/zG7Txf43ZQ/ZtpgNvS3koJEiWCqkMnQN6GrTWHwAj466m/5oCbsEP0JfDyeADO7v+bcES1F5kNAO0xN02PeC2p9vhF4BeY3DQyyxIUz7zrTloK+Zt0kMXSbT564m8E/d0GzAsbePltABnn/144a/5TmQ0Arx5+18pnq1oHmi7fAWkLFXdd2SI10Nu9ibiepeW2vyPo9MDfSPo7woWfP0cA8wJ4MW32Yt2lqM4GgBQYrc0EtxkbL94IFQaOBAwEY1XCcMh4J7vRovWaOPwpxVEr/I2qv1KcvLGeLZuk9xLvABDHPoGC9iSPSGoyHk4GpGCENKwSees6/PvD93BkyUzATHtWIIxtX6hFZyjasacqQX5kYqQG/mbSXyaWVuG1sGYhuH8p1CrqKNUD7z/mUFqZ69lHgA0A+7jwUxcIPL5/F079ugxO/rL4eSbBZyQ70UVvKrwW3u0ZipUGzGqHiX0SJ0+hQifqsSTjb3L91UPWfJw3De4Ox3+abz7BaRLPFs3fo7Hg1mwA8BwgIxB5+yaE7d4K/2/vXoCkqs4Ejh8eM9EBRl4psyrKxBhWRPDBI9GIURefhJgYMGIQ1Gwlu8EkPkqjuGSUXU3cJCgRY2rXaEQTQ9hEWeKCBrayybpRMcIACqwKMprVKO+HysjMft8UpCYw3dPT55x7v3v7f6tOAd19vvOd32m6v759+943lz/jNr+yVj6NrHPvbt7odu/c4ZqbOjrdtvfwRQPoudar5RP+QX36yW79Otfn6EHu0GEj5TfUo1tvy8NWzF/nl/f552ENfeaw5rGfuCU3xjtDpU9uEftOkdg/jhi/IkKbLwAqYhWYJAIIIBBBwPcrVEmplPeICJkTMgkBDgJMQpkxEEAAAQQQMCZAAWBsQUgHAQQQQACBJAQoAJJQZgwEEEAAAQSMCVAAGFsQ0kEAAQQQQCAJAQqAJJQZAwEEEEAAAWMCFADGFoR0EEAAAQQQSEKAAiAJZcZAAAEEEEDAmAAFgLEFIR0EEEAAAQSSEKAASEKZMRBAAAEEEDAmQAFgbEFIBwEEEEAAgSQEKACSUGYMBBBAAAEEjAlQABhbENJBAAEEEEAgCQEKgCSUGQMBBBBAAAFjAhQAxhaEdBBAAAEEEEhCgAIgCWXGQAABBBBAwJhAKdd6bjGWM+kggAACCCQjUMp7RDKZMEpwAfYABCclIAIIIIAAAvYFKADsrxEZIoAAAgggEFyAAiA4KQERQAABBBCwL0ABYH+NyBABBBBAAIHgAhQAwUkJiAACCCCAgH0BCgD7a0SGCCCAAAIIBBegAAhOSkAEEEAAAQTsC1AA2F8jMkQAAQQQQCC4AAVAcFICIoAAAgggYF+AAsD+GpEhAggggAACwQUoAIKTEhABBBBAAAH7AhQA9teIDBFAAAEEEAguQAEQnJSACCCAAAII2BegALC/RmSIAAIIIIBAcAEKgOCkBEQAAQQQQMC+QPfYKS5dvib2EMQvIjB82KAi93Z8V8utX+34QREf0WX6LK/o5O/F53z9+f/v5+/b2/f/v+/49LctwB4A2+tDdggggAACCEQRoACIwkpQBBBAAAEEbAtQANheH7JDAAEEEEAgigAFQBRWgiKAAAIIIGBbgALA9vqQHQIIIIAAAlEEKACisBIUAQQQQAAB2wIUALbXh+wQQAABBBCIIkABEIXVTtCqqiqvZLa/t9urP52zK7DNc+2rq6uzO3kyR6ACBCgAcr7INT16eM2wcdsOr/50zq7Ahq3bvZKvqfF77nkNTmcEEOhQgAKgQ6JsP6C29hCvCTz50gav/nTOroDv2tfW1mZ38mSOQAUIUADkfJEHDDjSa4b/+twqt6e5xSsGnbMnoGuua++zDThqoE93+iKAQGQBCoDIwGmHP2pgnVcKK/+00f3g2QavGHTOnsDsZxrcC29t8krc97nnNTidEUCgQwEKgA6Jsv2A44ed6D2Baxf+zi1+pdE7DgGyIfDrlxvddYt+653s0KH+zz3vJAiAAAIFBSgACtLk447hI0a5Ll26eE1m95497vw58933f7+crwO8JG131t3+s2SNz3/oMde0p9kr2a5du7rhI0d5xaAzAgjEFYh+OeC46RO9I4G+ffu544YMdStXLO/ooUXv1yLgq4//xv1w6Up35UmD3ZiPHOkG9q51Pav9fmZYdFDujC6wY3eTW79lm3tCDva8T77z993tvy/hIUOHud69+0TPnwEQQKB8AQqA8u0y0/P8sZ/2LgD2TXaVHBNwzUL/3cNJ4flezz6pPAuNk9X8L5DnHBsCCNgW4CsA2+sTJLtzzxvrDj744CCxCIJARwJ67okx51zQ0cO4HwEEUhagAEh5AZIYvvaQQ9xnP/f5JIZiDATc+IsnOs4BwBMBAfsCFAD21yhIhpOmXOlqamqCxCIIAoUEevTo6S6ddHmhu7kdAQQMCVAAGFqMmKn07/9B97dfnhpzCGIj4L78la85PfCUDQEE7AtQANhfo2AZXnLpZHfs4OOCxSMQAm0F9NcmEz5/KSgIIJARAQqAjCxUiDS7d+/ubr/jTtezZ68Q4YiBwJ8FevWqlefWTNetWzdUEEAgIwIUABlZqFBpHiHXBrj1tjt4oQ4FSpzW59I/3v4dd9jhR6CBAAIZEiilAPC6IHxTU1OGOCoj1dGnn+mmTZ/hfYbAytBilsUE9CyT/1D/T+7U004v9jDuS0Fg926vl27N+L0U0mbIBAVKKQC8Lgj/zq5dCU6HoUoVGHfhRa5+xrecfi3AhkA5Al27dmstJMeO+0w53ekTWWDXrp2+I2z3DUB/2wKlFADbfKawdesWn+70jShwwacudP88826OCYhonNfQ+p3/zFk/cBd+dnxep5j5eW3b5vXSrfOnAMj8s6D4BEopALz2ADQ2biieAfemKnDa6DPcwz/7pRt83JBU82Dw7Ajo0f76nGG3v+01a3x1vW+CFAC+gsb7l1IAvOEzh1fXr/PpTt8EBA4/YoC7f85cd811Nzo9jSsbAu0J6El+rr1+mvvRg49wwF97QMZuC/Da6/Xab4yDdNoRKKUAWNNOv5JvWrH8+ZIfywPTE9AjuSdOmuIe/fcn3KTJnDUwvZWwN7IWhZdd/kX3ywVPuEsuvYxfkNhbonYzamjwfu31eu1vNyluNCVQyoXir5KMZ5WbtZ4VbNGS/+aI83IBU+qn3x8u+o8F7vEFj7VeSbClpSWlTBg2DQE9uv/4YSc4vaqfXtiHc/unsQrlj9nc3OzOPuMUt2XL5vKDOKenDp3tE4C+tgVKKQDOliks8pnGAw/NdUOOH+YTgr4pCmzevMktffZpt6JhmVu/7hX3+muNrS8su3budPzMM8WFCTB0VVVV69c+vXv3cfpVUF3d0e74oSe44SNHtd7Glk2BhmXPuysme18AbIzM/tfZFCDrUgRK+Q3YHySQfvwrpVhod0z9FEkB0C5NJm7s06evG3P2ea2NDQEE7Av8asGjvkk2SwDv7xB8k6B/XIFSjgF4W1Jo8EljoexKfuedd3xC0BcBBBBAoAQB3TP35KLHS3hk0Ycsl3s3Fn0Ed2ZeoJQCQCe5xGem27Zudb+Y94hPCPoigAACCJQg8POf/cQFOAfA4hKG4iEZF0ikAFCjOQ/c53ZxVsCMP11IHwEELAvs3LnDPTzn/hApen3oC5EAMeILlFoA6IEgXqf0e/vtt9y/3Ht3/BkxAgIIIFChAvfOvstt2uS9515/OkABUAHPoVILgHfFYp6vx08f/rF78YVVvmHojwACCCCwn8CqlQ1u7iMPh3CZK0G4EFAISeMxSi0AdBpzfOfy/vvvuxuv/7rbsYMzTPpa0h8BBBDYJ7B9+zZ5bb3a7dmzJwSK92t9iCSIEV+gMwXAbyWdl3xTek2uDTD9putDPVF906E/AgggkGkBfdO/+cbr3B9ffy3EPNZKkKdCBCKGfYFunUxRdwt9qpN9Dnj4q6+uc3968w03+pNncobAA3S4AQEEEChNQM/Qees3b3KLn1xYWoeOH3WDPETP/cJWAQKdLQD0fACTpR3ia7Nm9YutFateja5r187siPAdmf4IIIBA9gWam/e422ZMd/Mf/bdQk2mUQF+UFuR7hFBJESeeQGcLAD07lJ4V8NwQKf3v2tVOC4FPjD7dVVd/IERIYiCAAAK5F9Dv/G+47mshTvjT1mqa/OP3ucdjgn8WKOf0vgdL7xXSjg7lqOcgv/2OO7kmfShQ4iCAQG4F9Gh/PeAv0Hf++5z0u/+h0jj6P7fPnAMn1tk9ABrhfWl6mcgvHBiuvFu2y5XndDfW1i1b3LATT5K9AdXlBaIXAgggkFMBPZ36vffc5WbUT3N6dtXA2ySJtzpwTMIZFyhnD8C+Kf1C/vKZ0PPr26+/XI/+CnfR+EtcTU1N6PDEQwABBDIloOf2nzf3p+6hB38U4iQ/7c1df/d/cXt3cFu+BXwKgAFCs0xa3xhEev3xc84b686X65HrlQT1+uRsCCCAQCUI6NH9K5Yvc3pVP72wT4Bz+xdi04u96bXa/1joAdyeXwHfd9VxQqPXnfSNU1RYL0c7fMSo1uuUD6z7cOt1y/Va5Xodc72eORsCCCCQRYGmpiann/C3bNnsXn+t0a1b97Jb0bDMLX3m6dbbIm96QPdYad6XDoycJ+EjCYR44/6u5HZNpPwIiwACCCAQR+DbEvYbcUITNQsCIQoA/QiuFwsanYUJkyMCCCCAgPtPMThHWhMWlSsQogBQvVppv5F2QuVSMnMEEEAgEwL6M279wOZ1hddMzJQkiwqEKgB0kMOk/U5aXdERuRMBBBBAIC2BdTLwqdL+L60EGNeOQMhz8OpRpGdL0ycYGwIIIICALQF9bR4jjTd/W+uSWjYhCwCdhF4t8BRp+vNANgQQQAABGwIrJY3TpL1sIx2ysCAQugDQOb0h7QxpekwAGwIIIIBAugJ6wN8npL2ebhqMbk2gnFMBlzKHd+VBD0nT35nqwSYhjzUoZXwegwACCFS6gL7+fl/aZdJ2VToG8z9QIIk3Zj3RxAPS+h04PLcggAACCEQQ2CgxJ0v7VYTYhMyJQIyvAPanWSA36Kkm5+1/B/9GAAEEEAguoOf21yv78eYfnDZfAZPYA9BWTI8NmC3t2HwxMhsEEEAgdQE9CPsqaQtTz4QEMiGQxB6AthB6MMqJe5+kjZkQIkkEEEDAtsAGSW+qtCHSePO3vVamskt6D0DbyVfLP/TglOulHWNKhWQQQAAB+wJrJcU7pM2Rttt+umRoTSDNAqCtxcnyDy0GJkrrbw2JfBBAAAEjAlslj/nSHpS2WJoe6c+GQFkCVgqAfckfJH85U9pZe//UA1mS/pqiLEg6IYAAAhEEmiXmcmlLpOkbvv75XoRxCFmBAtYKgP2XQH86qMcMDJL219I+Ku1Qab2k9ZbWU5p+lcCGAAIIZFFAd93vkKYX5tku7U1pa6Stlqa7+J+Xpj/pY0MguID1AiD4hAmYuIDXLsq58/VDT+VuE8bpzjCvjf/jXnx0RiC/Auxez+/aMjMEEEAAAQQKClAAFKThDgQQQAABBPIrQAGQ37VlZggggAACCBQUoAAoSMMdCCCAAAII5FeAAiC/a8vMEEAAAQQQKChAAVCQhjsQQAABBBDIrwAFQH7XlpkhgAACCCBQUIACoCANdyCAAAIIIJBfAQqA/K4tM0MAAQQQQKCgAAVAQRruQAABBBBAIL8CFAD5XVtmhgACCCCAQEEBCoCCNNyBAAIIIIBAfgUoAPK7tswMAQQQQACBggIUAAVpuAMBBBBAAIH8ClAA5HdtmRkCCCCAAAIFBboXvIc7sihQJ0l/TNpIaSdJ+6C0PnvbB7I4IXL2FmjxjlBegPek22Zpm6S9Je0P0p6R9rS0deWFpBcCCIQUoAAIqZlOrMNk2PF726nppMCoCBwgoAXnh/Y2vfP0No94Qf7+c2kPSFvf5nb+igACCQrwFUCC2IGHOkri3S9tg7Q7pfHmHxiYcNEEBkvkb0p7Sdp90o6MNhKBEUCgoAAFQEEas3f0lMxmSlsrbYq0bmYzJTEEigvoc/cKafpc/p60HsUfzr0IIBBSgAIgpGb8WMNliOekfV1adfzhGAGBRAT064Kr9z639dgVNgQQSECAAiAB5EBDXCVxnpL20UDxCIOANYFBktD/SPs7a4mRDwJ5FKAAyMaq3iBpzpJWlY10yRKBsgV0z9Y90r5VdgQ6IoBASQIUACUxpfogfSHkxTDVJWDwFAS06J2RwrgMiUDFCFAA2F7qL0l6+kLIhkAlCtwsk76yEifOnBFIQoACIAnl8sbQE/rcVV5XeiGQG4G7ZSYjcjMbJoKAIQEKAEOL0SaVWvn7PGmcvc/m+pBVcgIHyVB60iD9+SsbAggEFKAACIgZMNR0iXV4wHiEQiDLAnrSq5uyPAFyR8CiAAWAvVU5RlKaai8tMkIgVYFrZXR+ApvqEjB43gQoAOytqJ4RjV3/9taFjNIV0J8HfjvdFBgdgXwJUADYWk89C9oFtlIiGwTMCHxaMtGzYbIhgEAAAQqAAIgBQ9wisboEjEcoBPIkoP83puVpQswFgTQFuBxwmvp/ObZ+sgn26f/Y44a6M/7mXDd4yDDXt19/1717Oks9YdxZdoQrMJO58xenMuumpia3aePb7sVVDW7Jk4+71S+sDJWH7gU4UdrzoQISB4FKFUjnXaFStYvPWy+P6v3pv2evXu5LU691oz5+WvHRuBeBiAJVVVXu0A/9VWv75FnnuKef+i/3w9nfczu2b/cdVf+P6P+VC30D0R+BShfgKwAbz4Agn/579ap1t9x+J2/+NtaULNoIjDpltLvltplOC9QA2ziJoXsB2BBAwEOAAsADL2DXIJ/+v3L1DW7AkQMDpkUoBMIJDDiqzk29+hshAu7bCxAiFjEQqFgBCoD0lz7Ip/+Thn/MaWNDwLKAPkdPHvnxECmyFyCEIjEqWoACIP3lD/Lpf/wll6U/EzJAoASBCROnuC5dvA930QB6xkw2BBAoU4ACoEy4QN2C/O5/+MhT3NHHDAqUEmEQiCtQ9+GPOH3OBtg4L0AAREJUrgAFQLprH+R3/xdd/IV0Z8HoCHRS4HOyxyrQXgDOC9BJex6OwD4BCoD0ngt8+k/PnpFTFtC9ACePCHIsAHsBUl5Lhs+uAAVAemtXL0N7fxHKp//0FpCR/QTGT5zMXgA/Qnoj4CVAAeDFV3Zn/fQ/tuzeezvy3b+vIP3TFGAvQJr6jI2AcxQA6TwL6mVYPv2nY8+ohgTYC2BoMUil4gQoAJJfcj79J2/OiEYF2AtgdGFIqyIEKACSX+Z6GZJP/8m7M6JRgYB7AW42OkXSQsCkAAVAssvCp/9kvRktAwKB9wKMyMCUSREBEwIUAMkuQ70Mx6f/ZM0ZLQMCgfYC6Ew5L0AG1psUbQh4vxnZmEYmstBP/0ulYZ6J5SLJDAuMlNyfzXD+pI5AIgLsAUiEuXWQemm8+SfnzUiVK8BegMpde2beCQHekDqB5fFQvXb5c9Lw9kCkKwKdEGAvQCeweGhlCrAHIJl1r5dhePNPxppREFAB9gLwPECgAwHelDoACnA3n/4DIBICgTIE2AtQBhpdKkeAPQDx17pehqDQiu/MCAjsL8BegP1F+DcCbQR4Y4r/dGiWIXCO78wICOwv0CI38CFnfxX+jcBeAd6Y4j8V9EWIDQEE0hHgNS4dd0bNgADVcQYWiRQRQAABBBAILUABEFqUeAgggAACCGRAgAIgA4tEiggggAACCIQWoAAILUo8BBBAAAEEMiBAAZCBRSJFBBBAAAEEQgtQAIQWJR4CCCCAAAIZEKAAyMAikSICCCCAAAKhBSgAQosSDwEEEEAAgQwIdM9AjhWd4j33z63o+TP5yhb4+8snVDYAs0cgogB7ACLiEhoBBBBAAAGrAhQAVleGvBBAAAEEEIgoQAEQEZfQCCCAAAIIWBWgALC6MuSFAAIIIIBARAEKgIi4hEYAAQQQQMCqAAWA1ZUhLwQQQAABBCIKUABExCU0AggggAACVgUoAKyuDHkhgAACCCAQUYACICIuoRFAAAEEELAqQAFgdWXICwEEEEAAgYgCFAARcQmNAAIIIICAVQEKAKsrQ14IIIAAAghEFKAAiIhLaAQQQAABBKwKUABYXRnyQgABBBBAIKIABUBEXEIjgAACCCBgVaCL1cRylFdLjubCVBDImgCvcVlbMfJNTIA9AIlRMxACCCCAAAKF0beWAAABIUlEQVR2BCgA7KwFmSCAAAIIIJCYAAVAYtQMhAACCCCAgB0BCgA7a0EmCCCAAAIIJCZAAZAYNQMhgAACCCBgR4ACwM5akAkCCCCAAAKJCVAAJEbNQAgggAACCNgRoACwsxZkggACCCCAQGICFACJUTMQAggggAACdgQoAOysBZkggAACCCCQmAAFQGLUDIQAAggggIAdAQoAO2tBJggggAACCCQmQAGQGDUDIYAAAgggYEeAAsDOWpAJAggggAACiQlQACRGzUAIIIAAAggggAACCCCAAAIIIIAAAggggAACCCCAAAIIIIAAAggggAACCCCAAAIIIIAAAggggAACCCCAAAIIIIAAAggggAACCCCAAAIIIIAAAggggAACCBwo8P+CR2CSI4JNNwAAAABJRU5ErkJggg==;" vertex="1" parent="jZVaUwOg5UY3L9NAnvdq-71">
          <mxGeometry x="900" y="274.62" width="62" height="62" as="geometry" />
        </mxCell>
        <mxCell id="ifsCe7wSicus5D4EdEdn-3" value="Web Browser" style="sketch=0;verticalLabelPosition=bottom;sketch=0;aspect=fixed;html=1;verticalAlign=top;strokeColor=none;fillColor=#000000;align=center;outlineConnect=0;pointerEvents=1;shape=mxgraph.citrix2.desktop;labelBackgroundColor=default;spacingTop=7;fontSize=13;" parent="1" vertex="1">
          <mxGeometry x="211.69" y="610" width="100.89" height="78" as="geometry" />
        </mxCell>
        <mxCell id="ASHzGRQUF6kaOziHz2nL-49" style="edgeStyle=orthogonalEdgeStyle;rounded=0;orthogonalLoop=1;jettySize=auto;html=1;" parent="1" source="ifsCe7wSicus5D4EdEdn-3" target="ASHzGRQUF6kaOziHz2nL-48" edge="1">
          <mxGeometry relative="1" as="geometry" />
        </mxCell>
        <mxCell id="ASHzGRQUF6kaOziHz2nL-51" value="&lt;div&gt;&lt;font style=&quot;font-size: 13px;&quot;&gt;Cloudflare Domain&lt;/font&gt;&lt;/div&gt;&lt;div&gt;&lt;font style=&quot;font-size: 13px;&quot;&gt;(CDN &amp;amp; TLS)&lt;br&gt;&lt;/font&gt;&lt;/div&gt;" style="edgeLabel;html=1;align=center;verticalAlign=middle;resizable=0;points=[];" parent="ASHzGRQUF6kaOziHz2nL-49" vertex="1" connectable="0">
          <mxGeometry x="-0.0381" y="-2" relative="1" as="geometry">
            <mxPoint as="offset" />
          </mxGeometry>
        </mxCell>
      </root>
    </mxGraphModel>
  </diagram>
</mxfile>
